<svg width="92" height="23" viewBox="0 0 92 23" fill="none" xmlns="http://www.w3.org/2000/svg">
<path d="M29.6015 12.3162C29.7092 12.4884 29.8814 12.5745 30.1182 12.5745C30.4196 12.596 30.6349 12.2731 30.6349 12.2731L35.7371 5.70691C36.1677 5.27634 36.5768 5.6208 36.5768 5.6208C36.9858 6.05137 36.6844 6.41735 36.6844 6.41735L35.5434 7.88129V7.90282C35.4357 8.01047 35.3927 8.13964 35.3927 8.29034C35.3927 8.41951 35.4357 8.54868 35.5219 8.65632L36.6629 10.1203L40.2797 5.51316L38.8373 3.6617L38.5789 3.31725C38.3421 2.97279 37.8254 2.9082 37.8254 2.9082H35.651C35.0698 2.9082 34.7684 3.31725 34.7684 3.31725L28.6758 11.1321L29.6015 12.3162Z" fill="#9F2241"/>
<path d="M29.3434 8.30687L27.901 6.43388C27.5996 5.96026 28.0301 5.6158 28.0301 5.6158C28.5684 5.29287 28.8913 5.78803 28.8913 5.78803L30.0969 7.33808L31.5178 5.48663L29.8816 3.37683C29.4941 2.81709 28.8913 2.90321 28.8913 2.90321H26.9322C26.3079 2.90321 26.028 3.29072 26.028 3.29072L24.2842 5.48663L27.901 10.1368L29.3434 8.30687Z" fill="#9F2241"/>
<path d="M34.9623 9.9019C34.9623 9.9019 34.7901 9.64355 34.4672 9.64355C34.1227 9.64355 33.9935 9.88037 33.9935 9.88037L28.8267 16.5327C28.4177 16.9848 27.944 16.6188 27.944 16.6188C27.535 16.1882 27.8794 15.8007 27.8794 15.8007L29.042 14.3152V14.2937C29.1496 14.1861 29.1927 14.0569 29.1927 13.9062C29.1927 13.777 29.1496 13.6479 29.0635 13.5402L27.9225 12.0763L24.2842 16.748L26.3079 19.3099L29.4941 19.3314L35.9096 11.129L34.9623 9.9019Z" fill="#9F2241"/>
<path d="M35.2203 13.8856L36.6842 15.7801C37.0287 16.2537 36.5981 16.5982 36.5981 16.5982C36.0384 16.9857 35.6939 16.4044 35.6939 16.4044L34.4668 14.8328L33.0459 16.6843L35.1126 19.3108L38.2773 19.2892L40.301 16.6843L36.6627 12.0557L35.2203 13.8856Z" fill="#9F2241"/>
<path d="M40.2579 11.9069C39.8273 11.9069 39.4829 11.5625 39.4829 11.1319C39.4829 10.7013 39.8273 10.3569 40.2579 10.3569C40.6885 10.3569 41.0329 10.7013 41.0329 11.1319C41.0329 11.5625 40.6885 11.9069 40.2579 11.9069ZM40.2579 9.66797C39.4398 9.66797 38.7939 10.3138 38.7939 11.1104C38.7939 11.9069 39.4398 12.5528 40.2579 12.5528C41.076 12.5528 41.7218 11.9069 41.7218 11.1104C41.7218 10.3138 41.076 9.66797 40.2579 9.66797Z" fill="#9F2241"/>
<path d="M32.2716 0.667384C32.7021 0.667384 33.0466 1.01184 33.0466 1.44241C33.0466 1.87298 32.7021 2.21744 32.2716 2.21744C31.841 2.21744 31.4965 1.87298 31.4965 1.44241C31.4965 1.01184 31.8625 0.667384 32.2716 0.667384ZM32.2716 2.90635C33.0896 2.90635 33.7355 2.2605 33.7355 1.46394C33.7355 0.667385 33.0896 0 32.2716 0C31.4535 0 30.8076 0.645856 30.8076 1.44241C30.8076 2.23897 31.4535 2.90635 32.2716 2.90635Z" fill="#9F2241"/>
<path d="M23.4867 11.1104C23.4867 10.6798 23.8312 10.3354 24.2617 10.3354C24.6923 10.3354 25.0368 10.6798 25.0368 11.1104C25.0368 11.541 24.6923 11.8854 24.2617 11.8854C23.8312 11.8854 23.4867 11.541 23.4867 11.1104ZM25.7472 11.1104C25.7472 10.3138 25.1014 9.66797 24.2833 9.66797C23.4652 9.66797 22.8193 10.3138 22.8193 11.1104C22.8193 11.9069 23.4652 12.5528 24.2833 12.5528C25.0798 12.5743 25.7472 11.9069 25.7472 11.1104Z" fill="#9F2241"/>
<path d="M32.2716 21.569C31.841 21.569 31.4965 21.2246 31.4965 20.794C31.4965 20.3634 31.841 20.019 32.2716 20.019C32.7021 20.019 33.0466 20.3634 33.0466 20.794C33.0466 21.2031 32.7021 21.569 32.2716 21.569ZM32.2716 19.3301C31.4535 19.3301 30.8076 19.9759 30.8076 20.7725C30.8076 21.569 31.4535 22.2149 32.2716 22.2149C33.0896 22.2149 33.7355 21.569 33.7355 20.7725C33.7355 19.9759 33.0896 19.3301 32.2716 19.3301Z" fill="#9F2241"/>
<path d="M16.9214 1.44336H0V12.7243C0 18.9245 8.43919 20.776 8.43919 20.776H8.46071C8.46071 20.776 16.8999 18.903 16.8999 12.7243L16.9214 1.44336ZM16.4909 1.8524V12.7243C16.4909 14.0376 16.0818 15.2647 15.2637 16.3411C14.5963 17.2238 13.6706 18.0203 12.4865 18.7092C10.6997 19.7641 8.86976 20.2593 8.43919 20.3454C8.03014 20.2378 6.22175 19.7641 4.41335 18.7092C3.22928 18.0203 2.30355 17.2238 1.63617 16.3411C0.818084 15.2647 0.409042 14.0376 0.409042 12.7243V1.8524H16.4909Z" fill="#BC955C"/>
<path d="M10.5044 5.05876V4.02539H9.4495V4.99417H9.04046V4.02539H7.9425V4.99417H7.53346V4.02539H6.45703V5.05876L6.99524 5.96296C7.01677 6.00602 7.01677 6.02754 7.01677 6.0706V10.8069H7.53346V9.10612C7.53346 8.69708 7.98556 8.3311 8.48071 8.3311C8.9974 8.3311 9.42797 8.69708 9.42797 9.10612V10.8069H9.96618V9.02001C9.96618 8.99848 9.96618 8.99848 9.96618 8.99848V8.11581V8.09428V7.44843V7.16856V6.09213C9.96618 6.04907 9.98771 6.02754 10.0092 5.98449L10.5044 5.05876Z" fill="#BC955C"/>
<path d="M6.56498 10.9154V9.34384L6.39275 9.47301C6.32816 9.51607 6.24205 9.51607 6.17746 9.45148L5.94065 9.30078C5.94065 9.32231 5.94065 9.32231 5.94065 9.32231L5.91912 9.92511C5.91912 9.98969 5.87606 10.0543 5.83301 10.0758C5.85454 10.0973 5.87606 10.0973 5.89759 10.1189C6.17746 10.3342 6.19899 10.6571 6.13441 10.9154H6.56498Z" fill="#BC955C"/>
<path d="M8.43958 8.76367C8.11665 8.76367 7.90137 9.00049 7.90137 9.10813V10.8089H8.9778V9.10813C8.99932 8.97896 8.76251 8.76367 8.43958 8.76367Z" fill="#BC955C"/>
<path d="M2.10999 10.9159C2.0454 10.7867 2.00235 10.636 1.98082 10.4423C1.91623 10.0978 1.93776 9.81793 1.93776 9.7964C1.93776 9.71029 2.00235 9.6457 2.08846 9.60265L2.54056 9.47347L2.02387 9.10749C1.95929 9.06443 1.93776 8.99985 1.93776 8.93526V8.35399C1.93776 8.26788 1.98082 8.20329 2.0454 8.16023L2.23916 8.05259V7.85883L2.08846 7.79425C2.00235 7.77272 1.93776 7.70813 1.93776 7.60049V6.91158C1.93776 6.80394 2.02387 6.69629 2.15305 6.69629L2.7989 6.67476C2.77737 6.50254 2.77737 6.26572 2.82043 6.07197C2.88502 5.81362 3.03572 5.53375 3.1003 5.40458L3.05724 5.16777C3.03572 5.10318 3.07877 5.06012 3.1003 5.01707C3.14336 4.97401 3.18642 4.95248 3.251 4.95248H3.59546C3.63851 4.95248 3.68157 4.97401 3.7031 4.99554L4.54271 5.53375H4.95175C5.01634 5.53375 5.0594 5.55528 5.10245 5.59834C5.14551 5.64139 5.16704 5.68445 5.16704 5.74904L5.12398 6.41642C5.12398 6.48101 5.10245 6.52406 5.0594 6.56712H5.31774C5.38233 6.56712 5.42538 6.58865 5.46844 6.63171L5.57608 6.76088L5.6622 6.69629L5.8129 6.39489C5.85595 6.33031 5.92054 6.28725 6.00665 6.28725H6.56639V6.17961L6.02818 5.25388C6.00665 5.21082 6.00665 5.1893 6.00665 5.14624V3.81147C6.00665 3.70383 6.09277 3.59618 6.22194 3.59618H7.51365H7.92269H9.02065H9.45122H10.7214C10.829 3.59618 10.9367 3.6823 10.9367 3.81147V5.10318C10.9367 5.14624 10.9152 5.16777 10.8936 5.21082L10.3554 6.11502V6.24419H10.9152C11.0013 6.24419 11.0659 6.28725 11.1089 6.35184L11.2596 6.65324L11.3457 6.71782L11.4534 6.58865C11.4964 6.54559 11.5395 6.52406 11.6041 6.52406H11.8624C11.8194 6.48101 11.7978 6.43795 11.7978 6.37337L11.7548 5.70598C11.7548 5.64139 11.7763 5.59834 11.8194 5.55528C11.8624 5.51222 11.9055 5.4907 11.9701 5.4907H12.3576L13.1972 4.95248C13.2402 4.93095 13.2618 4.90942 13.3048 4.90942H13.6493C13.7139 4.90942 13.7569 4.93095 13.8 4.97401C13.843 5.01707 13.8646 5.08165 13.843 5.12471L13.8 5.36152C13.8646 5.4907 14.0153 5.77057 14.0799 6.02891C14.1229 6.22267 14.1229 6.45948 14.1014 6.63171L14.7472 6.65324C14.8549 6.65324 14.9625 6.73935 14.9625 6.86852V7.55743C14.9625 7.64355 14.9195 7.70813 14.8334 7.75119L14.6396 7.81578V8.00953L14.8334 8.11718C14.8979 8.16023 14.941 8.22482 14.941 8.31093V8.8922C14.941 8.95679 14.8979 9.02137 14.8549 9.06443L14.3382 9.43042L14.7903 9.55959C14.8764 9.58112 14.9195 9.66723 14.941 9.75335C14.941 9.77487 14.9625 10.0547 14.8979 10.3992C14.8549 10.593 14.8334 10.7437 14.7688 10.8728H15.5223H15.5438V2.88574H1.33496V10.9159H2.10999Z" fill="#BC955C"/>
<path d="M11.0013 10.1189C11.0229 10.0973 11.0444 10.0973 11.0659 10.0758C11.0229 10.0328 10.9798 9.98969 10.9798 9.92511V9.32231C10.9798 9.30078 10.9798 9.30078 10.9798 9.30078L10.7645 9.47301C10.6999 9.51607 10.6138 9.51607 10.5277 9.49454L10.3555 9.38689V10.9585H10.7645C10.7215 10.6571 10.7215 10.3557 11.0013 10.1189Z" fill="#BC955C"/>
<path d="M13.7776 15.2195C13.67 15.2195 13.5623 15.1333 13.5623 15.0042V13.6479C13.5623 13.5402 13.4977 13.4111 13.4116 13.3249C13.3255 13.2388 13.1963 13.1527 12.9811 13.1742C12.6581 13.1742 12.4644 13.4326 12.4428 13.6694V15.0257C12.4428 15.0903 12.4213 15.1333 12.3783 15.1764C12.3352 15.2195 12.2921 15.241 12.2276 15.241H11.0004C10.8928 15.241 10.7851 15.1549 10.7851 15.0257V13.6694C10.7851 13.5618 10.7206 13.4326 10.6344 13.3465C10.5483 13.2604 10.4192 13.1742 10.2039 13.1958C10.0747 13.1958 9.94553 13.2604 9.83789 13.3249L10.8497 18.5133C12.2706 17.889 13.9714 16.8341 14.8971 15.241L13.7776 15.2195Z" fill="#BC955C"/>
<path d="M10.4624 18.6233L9.04148 11.3467H7.90046L6.45805 18.6233C6.45805 18.6449 6.45805 18.6449 6.43652 18.6664C7.42684 19.0754 8.22339 19.2692 8.46021 19.3553C8.69702 19.2907 9.49358 19.0754 10.4839 18.6664C10.4839 18.6449 10.4839 18.6449 10.4624 18.6233Z" fill="#BC955C"/>
<path d="M7.06107 13.304C6.97496 13.2179 6.84578 13.1748 6.69509 13.1748H6.67356C6.45827 13.1748 6.3291 13.2609 6.26451 13.347C6.1784 13.4331 6.11381 13.5623 6.11381 13.67V15.0263C6.11381 15.1339 6.0277 15.2415 5.89853 15.2415H4.6714C4.60682 15.2415 4.56376 15.22 4.5207 15.177C4.47765 15.1339 4.45612 15.0908 4.45612 15.0263V13.67C4.43459 13.4331 4.24083 13.1748 3.9179 13.1748H3.89638C3.68109 13.1748 3.55192 13.2609 3.48733 13.347C3.40122 13.4331 3.33663 13.5623 3.33663 13.67V15.0263C3.33663 15.1339 3.25052 15.2415 3.12135 15.2415H2.04492C2.94912 16.8347 4.62835 17.868 6.07076 18.5139L7.06107 13.304Z" fill="#BC955C"/>
<path d="M15.5662 11.3467H9.47363L9.77503 12.8752C9.9042 12.8106 10.0549 12.7676 10.2056 12.7676C10.4855 12.7676 10.7438 12.8537 10.9376 13.0474C11.1098 13.2197 11.2174 13.4565 11.2174 13.6502V14.7912H12.0355V13.6502C12.0355 13.6287 12.0355 13.6287 12.0355 13.6287C12.0786 13.1335 12.4876 12.746 12.9828 12.746C13.2627 12.746 13.521 12.8321 13.7148 13.0259C13.887 13.1981 13.9946 13.4349 13.9946 13.6287V14.7697H15.1356C15.4155 14.1454 15.5877 13.4565 15.5877 12.6599L15.5662 11.3467Z" fill="#BC955C"/>
<path d="M2.94956 14.8107V13.6697C2.94956 13.4544 3.0572 13.2391 3.22943 13.0669C3.42318 12.8732 3.68153 12.787 3.9614 12.787C4.45655 12.8086 4.8656 13.1746 4.90865 13.6697C4.90865 13.6912 4.90865 13.6912 4.90865 13.6912V14.8323H5.72674V13.6912C5.72674 13.476 5.83438 13.2607 6.00661 13.0884C6.20036 12.8947 6.45871 12.8086 6.73858 12.8086C6.88928 12.8086 7.03998 12.8516 7.16915 12.9162L7.47055 11.3877H1.35645V12.7009C1.35645 13.4975 1.52867 14.2079 1.80854 14.8107H2.94956Z" fill="#BC955C"/>
<path d="M3.44566 10.485H3.79011C3.81164 10.528 3.83317 10.5711 3.83317 10.6142C3.83317 10.6357 3.83317 10.6787 3.83317 10.7003C3.83317 10.7649 3.81164 10.851 3.81164 10.9156H2.62757C2.45534 10.8079 2.36923 10.3343 2.36923 9.9683L2.88591 9.8176C2.97203 9.79607 3.03661 9.70996 3.03661 9.62384V9.43009C3.03661 9.3655 2.99356 9.30092 2.9505 9.25786L2.3477 8.82729V8.48283L2.54146 8.37519C2.60604 8.33213 2.6491 8.26755 2.6491 8.18143V7.72933C2.6491 7.64322 2.60604 7.57863 2.51993 7.53558L2.32617 7.47099V7.12653H2.86439L3.12273 7.55711V8.13838L2.9505 8.69812C2.92897 8.7627 2.92897 8.82729 2.99356 8.89187C3.03661 8.95646 3.1012 8.97799 3.16578 8.97799H3.31648C3.42413 8.97799 3.51024 8.9134 3.53177 8.80576C3.5533 8.71965 3.59636 8.43978 3.63941 8.33213C3.68247 8.24602 3.83317 8.05226 3.91928 7.92309C3.98387 7.83698 3.98387 7.72933 3.91928 7.66475L3.23037 6.84666C3.20884 6.71749 3.18731 6.43762 3.23037 6.22234C3.27343 5.98552 3.44566 5.70565 3.48871 5.61954C3.51024 5.57648 3.53177 5.53342 3.51024 5.49037L3.48871 5.42578H3.53177L4.37138 5.96399C4.41444 5.98552 4.43597 6.00705 4.47902 6.00705H4.73737L4.71584 6.24387L4.43597 6.35151C4.37138 6.39457 4.3068 6.45915 4.3068 6.54526V6.76055C4.3068 6.86819 4.39291 6.97584 4.52208 6.97584H5.23252L5.42628 7.16959C5.49087 7.25571 5.62004 7.25571 5.70615 7.19112C5.70615 7.19112 6.02908 6.93278 6.05061 6.91125L6.15825 6.67444H6.58882V7.14806V7.40641C6.58882 7.40641 5.83532 7.66475 5.77074 7.68628C5.72768 7.70781 5.68462 7.94462 5.70615 7.98768C5.72768 8.05226 5.70615 8.07379 5.79227 8.11685C5.79227 8.11685 6.00755 8.28908 6.07214 8.3106L6.28742 8.09532L6.56729 8.13838V8.84882L6.28742 9.04257L5.40475 8.43978C5.31864 8.37519 5.18947 8.39672 5.12488 8.48283L4.99571 8.65506C4.93112 8.74118 4.93112 8.87035 5.01724 8.93493L5.51239 9.40856V9.79607L4.99571 10.0114C4.9096 10.0544 4.86654 10.119 4.86654 10.2051V10.2912C4.86654 10.3989 4.95265 10.5065 5.08182 10.5065H5.68462C5.79227 10.6357 5.74921 10.8079 5.70615 10.9371H4.32833C4.28527 10.894 4.26374 10.8079 4.24221 10.7003C4.24221 10.6787 4.24221 10.6357 4.24221 10.6142C4.24221 10.485 4.26374 10.3558 4.28527 10.2697L4.6082 9.86066C4.62972 9.8176 4.65125 9.77454 4.65125 9.75302L4.67278 9.55926C4.67278 9.49467 4.62972 9.43009 4.58667 9.3655C4.54361 9.30092 4.4575 9.32245 4.39291 9.34397L3.87623 9.55926C3.81164 9.58079 3.76858 9.64537 3.74705 9.70996L3.704 9.92524L3.4026 10.0114C3.31648 10.0329 3.2519 10.119 3.2519 10.2051V10.2912C3.23037 10.3989 3.33801 10.485 3.44566 10.485Z" fill="#BC955C"/>
<path d="M13.4771 10.484H13.1326C13.1111 10.527 13.0896 10.5701 13.0896 10.6131C13.0896 10.6347 13.0896 10.6777 13.0896 10.6993C13.0896 10.7638 13.1111 10.85 13.1111 10.9145H14.2952C14.4674 10.8069 14.5535 10.3333 14.5535 9.96728L14.0368 9.81658C13.9507 9.79505 13.8861 9.70894 13.8861 9.62282V9.42907C13.8861 9.36448 13.9292 9.2999 13.9723 9.25684L14.5535 8.8478V8.50334L14.3598 8.3957C14.2952 8.35264 14.2521 8.28805 14.2521 8.20194V7.74984C14.2521 7.66373 14.2952 7.59914 14.3813 7.55608L14.5751 7.4915V7.14704H14.0368L13.7785 7.57761V8.15888L13.9507 8.71863C13.9723 8.78321 13.9723 8.8478 13.9077 8.91238C13.8646 8.97697 13.8 8.9985 13.7354 8.9985H13.5847C13.4771 8.9985 13.391 8.93391 13.3695 8.82627C13.3479 8.74015 13.3049 8.46028 13.2618 8.35264C13.2188 8.26653 13.0681 8.07277 12.9819 7.9436C12.9174 7.85748 12.9174 7.74984 12.9819 7.68526L13.6924 6.86717C13.7139 6.738 13.7354 6.45813 13.6924 6.24284C13.6493 6.00603 13.4771 5.72616 13.434 5.64005C13.4125 5.59699 13.391 5.55393 13.4125 5.51087L13.434 5.44629H13.391L12.5514 5.9845C12.5083 6.00603 12.4868 6.02756 12.4437 6.02756H12.2069L12.2285 6.32896L12.5083 6.4366C12.5944 6.47966 12.6375 6.54424 12.6375 6.63036V6.84564C12.6375 6.95329 12.5514 7.06093 12.4222 7.06093H11.7118L11.518 7.25469C11.4534 7.3408 11.3243 7.3408 11.2381 7.27621C11.2381 7.27621 10.9152 7.01787 10.8937 6.99634L10.786 6.75953H10.3555V7.23316V7.4915C10.3555 7.4915 11.109 7.74984 11.1736 7.77137C11.2166 7.7929 11.2597 8.02971 11.2381 8.07277C11.2166 8.13736 11.2381 8.15888 11.152 8.20194C11.152 8.20194 10.9367 8.37417 10.8722 8.3957L10.6569 8.18041H10.3555V8.89085L10.6353 9.06308L11.518 8.46028C11.6041 8.3957 11.7333 8.41723 11.7979 8.50334L11.9271 8.67557C11.9916 8.76168 11.9916 8.89085 11.9055 8.95544L11.4104 9.40754V9.79505L11.9271 10.0103C12.0132 10.0534 12.0562 10.118 12.0562 10.2041V10.2902C12.0562 10.3979 11.9701 10.5055 11.8409 10.5055H11.2381C11.1305 10.6347 11.1736 10.8069 11.2166 10.9361H12.616C12.659 10.893 12.6806 10.8069 12.7021 10.6993C12.7021 10.6777 12.7021 10.6347 12.7021 10.6131C12.7021 10.484 12.6806 10.3548 12.659 10.2687L12.3361 9.85964C12.3146 9.81658 12.293 9.77352 12.293 9.75199L12.2715 9.53671C12.2715 9.47212 12.3146 9.40754 12.3576 9.34295C12.4222 9.2999 12.4868 9.2999 12.5514 9.32142L13.0681 9.53671C13.1326 9.55824 13.1757 9.62282 13.1972 9.68741L13.2403 9.90269L13.5417 9.98881C13.6278 10.0103 13.6924 10.0965 13.6924 10.1826V10.2687C13.6924 10.3979 13.6063 10.484 13.4771 10.484Z" fill="#BC955C"/>
<rect x="46.2598" y="2.43481" width="1.21737" height="17.0431" fill="#9F2241"/>
<path d="M57.7261 14.1045C56.7594 14.1045 55.7839 13.8171 55.2439 13.399L55.7229 12.3365C56.2368 12.711 57.0032 12.9723 57.7348 12.9723C58.571 12.9723 58.9106 12.6935 58.9106 12.319C58.9106 11.1781 55.3658 11.9619 55.3658 9.69742C55.3658 8.66097 56.2019 7.79871 57.9352 7.79871C58.7016 7.79871 59.4855 7.98161 60.0516 8.33871L59.6161 9.41C59.05 9.08774 58.4665 8.93097 57.9265 8.93097C57.0903 8.93097 56.7681 9.24452 56.7681 9.62774C56.7681 10.7513 60.3129 9.97613 60.3129 12.2145C60.3129 13.2335 59.4681 14.1045 57.7261 14.1045ZM62.7664 12.8677H66.0848V14H61.3641V7.90323H65.9715V9.03548H62.7664V10.3594H65.597V11.4568H62.7664V12.8677ZM74.1665 14H72.8426L72.8339 10.3419L71.0397 13.3555H70.4039L68.6184 10.4203V14H67.2945V7.90323H68.4616L70.7436 11.6919L72.9907 7.90323H74.149L74.1665 14ZM78.6526 14.1045C76.7278 14.1045 75.3168 12.7632 75.3168 10.9516C75.3168 9.14 76.7278 7.79871 78.6526 7.79871C80.5688 7.79871 81.9884 9.13129 81.9884 10.9516C81.9884 12.7719 80.5688 14.1045 78.6526 14.1045ZM78.6526 12.9026C79.7413 12.9026 80.56 12.11 80.56 10.9516C80.56 9.79323 79.7413 9.00065 78.6526 9.00065C77.5639 9.00065 76.7452 9.79323 76.7452 10.9516C76.7452 12.11 77.5639 12.9026 78.6526 12.9026ZM87.3912 7.90323H88.7934L86.1544 14H84.7608L82.1305 7.90323H83.6547L85.5099 12.2581L87.3912 7.90323ZM89.3895 14V7.90323H90.8005V14H89.3895Z" fill="#9F2241"/>
</svg>
