<svg width="170" height="44" viewBox="0 0 170 44" fill="none" xmlns="http://www.w3.org/2000/svg">
<path d="M56.3258 24.3894C56.5306 24.7171 56.8583 24.881 57.3089 24.881C57.8824 24.9219 58.2921 24.3075 58.2921 24.3075L68.0006 11.8134C68.8199 10.9941 69.5982 11.6495 69.5982 11.6495C70.3765 12.4688 69.803 13.1652 69.803 13.1652L67.6319 15.9508V15.9917C67.4271 16.1966 67.3452 16.4423 67.3452 16.7291C67.3452 16.9749 67.4271 17.2207 67.591 17.4255L69.7621 20.2111L76.6441 11.4447L73.8994 7.92178L73.4079 7.26636C72.9573 6.61093 71.9741 6.48804 71.9741 6.48804H67.8367C66.7307 6.48804 66.1572 7.26636 66.1572 7.26636L54.5643 22.1364L56.3258 24.3894Z" fill="#9F2241"/>
<path d="M55.8342 16.7702L53.0896 13.2063C52.5161 12.3051 53.3354 11.6497 53.3354 11.6497C54.3595 11.0352 54.974 11.9774 54.974 11.9774L57.268 14.9268L59.9716 11.4039L56.8583 7.38941C56.121 6.32434 54.974 6.4882 54.974 6.4882H51.2462C50.0583 6.4882 49.5257 7.22555 49.5257 7.22555L46.2076 11.4039L53.0896 20.2522L55.8342 16.7702Z" fill="#9F2241"/>
<path d="M66.5259 19.8014C66.5259 19.8014 66.1982 19.3099 65.5837 19.3099C64.9283 19.3099 64.6825 19.7605 64.6825 19.7605L54.8511 32.4184C54.0728 33.2787 53.1716 32.5823 53.1716 32.5823C52.3932 31.763 53.0487 31.0256 53.0487 31.0256L55.2607 28.1991V28.1581C55.4655 27.9533 55.5475 27.7075 55.5475 27.4208C55.5475 27.175 55.4656 26.9292 55.3017 26.7244L53.1306 23.9388L46.2076 32.8281L50.0583 37.7028L56.121 37.7438L68.3283 22.1364L66.5259 19.8014Z" fill="#9F2241"/>
<path d="M67.0174 27.38L69.803 30.9848C70.4584 31.886 69.6391 32.5415 69.6391 32.5415C68.574 33.2788 67.9186 32.1728 67.9186 32.1728L65.5836 29.1824L62.88 32.7053L66.8126 37.703L72.8343 37.662L76.6849 32.7053L69.762 23.898L67.0174 27.38Z" fill="#9F2241"/>
<path d="M76.6032 23.6112C75.7839 23.6112 75.1285 22.9557 75.1285 22.1365C75.1285 21.3172 75.7839 20.6617 76.6032 20.6617C77.4225 20.6617 78.0779 21.3172 78.0779 22.1365C78.0779 22.9557 77.4225 23.6112 76.6032 23.6112ZM76.6032 19.3509C75.0466 19.3509 73.8176 20.5798 73.8176 22.0955C73.8176 23.6112 75.0466 24.8401 76.6032 24.8401C78.1598 24.8401 79.3888 23.6112 79.3888 22.0955C79.3888 20.5798 78.1598 19.3509 76.6032 19.3509Z" fill="#9F2241"/>
<path d="M61.4054 2.2279C62.2247 2.2279 62.8801 2.88333 62.8801 3.70261C62.8801 4.52189 62.2247 5.17732 61.4054 5.17732C60.5861 5.17732 59.9307 4.52189 59.9307 3.70261C59.9307 2.88333 60.6271 2.2279 61.4054 2.2279ZM61.4054 6.48818C62.9621 6.48818 64.191 5.25925 64.191 3.74358C64.191 2.2279 62.9621 0.958008 61.4054 0.958008C59.8488 0.958008 58.6199 2.18693 58.6199 3.70261C58.6199 5.21829 59.8488 6.48818 61.4054 6.48818Z" fill="#9F2241"/>
<path d="M44.6916 22.0955C44.6916 21.2762 45.3471 20.6208 46.1664 20.6208C46.9856 20.6208 47.6411 21.2762 47.6411 22.0955C47.6411 22.9148 46.9856 23.5702 46.1664 23.5702C45.3471 23.5702 44.6916 22.9148 44.6916 22.0955ZM48.9929 22.0955C48.9929 20.5798 47.764 19.3509 46.2073 19.3509C44.6507 19.3509 43.4218 20.5798 43.4218 22.0955C43.4218 23.6112 44.6507 24.8401 46.2073 24.8401C47.723 24.8811 48.9929 23.6112 48.9929 22.0955Z" fill="#9F2241"/>
<path d="M61.4054 42.0042C60.5861 42.0042 59.9307 41.3488 59.9307 40.5295C59.9307 39.7102 60.5861 39.0548 61.4054 39.0548C62.2247 39.0548 62.8801 39.7102 62.8801 40.5295C62.8801 41.3078 62.2247 42.0042 61.4054 42.0042ZM61.4054 37.744C59.8488 37.744 58.6199 38.9729 58.6199 40.4886C58.6199 42.0042 59.8488 43.2332 61.4054 43.2332C62.9621 43.2332 64.191 42.0042 64.191 40.4886C64.191 38.9729 62.9621 37.744 61.4054 37.744Z" fill="#9F2241"/>
<path d="M32.1979 3.70288H0V25.1681C0 36.9658 16.058 40.4888 16.058 40.4888H16.0989C16.0989 40.4888 32.1569 36.9249 32.1569 25.1681L32.1979 3.70288ZM31.3786 4.4812V25.1681C31.3786 27.667 30.6003 30.0019 29.0436 32.0501C27.7737 33.7297 26.0123 35.2453 23.7592 36.5562C20.3592 38.5634 16.8773 39.5056 16.058 39.6695C15.2797 39.4647 11.8387 38.5634 8.39767 36.5562C6.14463 35.2453 4.38317 33.7297 3.11328 32.0501C1.55664 30.0019 0.77832 27.667 0.77832 25.1681V4.4812H31.3786Z" fill="#BC955C"/>
<path d="M19.9905 10.5848V8.61847H17.9832V10.4619H17.2049V8.61847H15.1157V10.4619H14.3374V8.61847H12.2892V10.5848L13.3133 12.3052C13.3543 12.3872 13.3543 12.4281 13.3543 12.5101V21.5222H14.3374V18.286C14.3374 17.5077 15.1976 16.8113 16.1398 16.8113C17.123 16.8113 17.9422 17.5077 17.9422 18.286V21.5222H18.9664V18.1222C18.9664 18.0812 18.9664 18.0812 18.9664 18.0812V16.4017V16.3607V15.1318V14.5992V12.551C18.9664 12.4691 19.0073 12.4281 19.0483 12.3462L19.9905 10.5848Z" fill="#BC955C"/>
<path d="M12.4943 21.7267V18.7363L12.1666 18.9821C12.0437 19.0641 11.8799 19.0641 11.757 18.9412L11.3064 18.6544C11.3064 18.6954 11.3064 18.6954 11.3064 18.6954L11.2654 19.8424C11.2654 19.9653 11.1835 20.0882 11.1016 20.1291C11.1425 20.1701 11.1835 20.1701 11.2245 20.2111C11.757 20.6207 11.798 21.2352 11.6751 21.7267H12.4943Z" fill="#BC955C"/>
<path d="M16.0582 17.6306C15.4437 17.6306 15.0341 18.0812 15.0341 18.286V21.5222H17.0823V18.286C17.1232 18.0402 16.6726 17.6306 16.0582 17.6306Z" fill="#BC955C"/>
<path d="M4.01426 21.7267C3.89137 21.4809 3.80944 21.1941 3.76848 20.8255C3.64558 20.17 3.68655 19.6375 3.68655 19.5965C3.68655 19.4327 3.80944 19.3098 3.9733 19.2279L4.83355 18.9821L3.85041 18.2857C3.72751 18.2038 3.68655 18.0809 3.68655 17.958V16.8519C3.68655 16.6881 3.76848 16.5652 3.89137 16.4833L4.26005 16.2784V15.9098L3.9733 15.7869C3.80944 15.7459 3.68655 15.623 3.68655 15.4182V14.1073C3.68655 13.9025 3.85041 13.6977 4.09619 13.6977L5.32512 13.6567C5.28415 13.329 5.28415 12.8784 5.36608 12.5097C5.48897 12.0182 5.77572 11.4856 5.89862 11.2398L5.81669 10.7892C5.77572 10.6663 5.85765 10.5844 5.89862 10.5025C5.98055 10.4206 6.06247 10.3796 6.18537 10.3796H6.84079C6.92272 10.3796 7.00465 10.4206 7.04562 10.4615L8.64322 11.4856H9.42154C9.54443 11.4856 9.62636 11.5266 9.70829 11.6085C9.79022 11.6904 9.83118 11.7724 9.83118 11.8953L9.74925 13.1652C9.74925 13.288 9.70829 13.37 9.62636 13.4519H10.1179C10.2408 13.4519 10.3228 13.4929 10.4047 13.5748L10.6095 13.8206L10.7734 13.6977L11.0601 13.1242C11.142 13.0013 11.2649 12.9194 11.4288 12.9194H12.4939V12.7145L11.4698 10.9531C11.4288 10.8712 11.4288 10.8302 11.4288 10.7483V8.20848C11.4288 8.00366 11.5926 7.79884 11.8384 7.79884H14.2963H15.0746H17.1638H17.9831H20.4C20.6048 7.79884 20.8096 7.9627 20.8096 8.20848V10.6663C20.8096 10.7483 20.7686 10.7892 20.7277 10.8712L19.7036 12.5917V12.8374H20.7686C20.9325 12.8374 21.0554 12.9194 21.1373 13.0423L21.4241 13.6158L21.5879 13.7387L21.7927 13.4929C21.8747 13.4109 21.9566 13.37 22.0795 13.37H22.5711C22.4891 13.288 22.4482 13.2061 22.4482 13.0832L22.3662 11.8133C22.3662 11.6904 22.4072 11.6085 22.4891 11.5266C22.5711 11.4447 22.653 11.4037 22.7759 11.4037H23.5132L25.1108 10.3796C25.1928 10.3386 25.2337 10.2977 25.3157 10.2977H25.9711C26.094 10.2977 26.1759 10.3386 26.2578 10.4206C26.3398 10.5025 26.3807 10.6254 26.3398 10.7073L26.2578 11.1579C26.3807 11.4037 26.6675 11.9362 26.7904 12.4278C26.8723 12.7965 26.8723 13.2471 26.8313 13.5748L28.0603 13.6158C28.2651 13.6158 28.4699 13.7796 28.4699 14.0254V15.3363C28.4699 15.5001 28.388 15.623 28.2241 15.7049L27.8554 15.8278V16.1965L28.2241 16.4013C28.347 16.4833 28.4289 16.6061 28.4289 16.77V17.876C28.4289 17.9989 28.347 18.1218 28.2651 18.2038L27.2819 18.9001L28.1422 19.1459C28.306 19.1869 28.388 19.3508 28.4289 19.5146C28.4289 19.5556 28.4699 20.0881 28.347 20.7435C28.2651 21.1122 28.2241 21.399 28.1012 21.6447H29.535H29.5759V6.44702H2.53955V21.7267H4.01426Z" fill="#BC955C"/>
<path d="M20.9327 20.2111C20.9736 20.1701 21.0146 20.1701 21.0556 20.1291C20.9736 20.0472 20.8917 19.9653 20.8917 19.8424V18.6954C20.8917 18.6544 20.8917 18.6544 20.8917 18.6544L20.4821 18.9821C20.3592 19.0641 20.1953 19.0641 20.0315 19.0231L19.7037 18.8183V21.8087H20.4821C20.4001 21.2352 20.4001 20.6617 20.9327 20.2111Z" fill="#BC955C"/>
<path d="M26.2172 29.9196C26.0123 29.9196 25.8075 29.7558 25.8075 29.51V26.9292C25.8075 26.7244 25.6846 26.4786 25.5208 26.3148C25.3569 26.1509 25.1111 25.9871 24.7015 26.028C24.087 26.028 23.7183 26.5196 23.6774 26.9702V29.551C23.6774 29.6739 23.6364 29.7558 23.5545 29.8377C23.4726 29.9196 23.3906 29.9606 23.2677 29.9606H20.9328C20.7279 29.9606 20.5231 29.7967 20.5231 29.551V26.9702C20.5231 26.7654 20.4002 26.5196 20.2364 26.3557C20.0725 26.1919 19.8267 26.028 19.4171 26.069C19.1713 26.069 18.9255 26.1919 18.7207 26.3148L20.646 36.1872C23.3497 34.9992 26.5858 32.992 28.3473 29.9606L26.2172 29.9196Z" fill="#BC955C"/>
<path d="M19.9087 36.3923L17.2051 22.5464H15.034L12.2894 36.3923C12.2894 36.4333 12.2894 36.4333 12.2484 36.4742C14.1328 37.2525 15.6484 37.6212 16.099 37.7851C16.5497 37.6622 18.0653 37.2525 19.9497 36.4742C19.9497 36.4333 19.9497 36.4333 19.9087 36.3923Z" fill="#BC955C"/>
<path d="M13.4361 26.2737C13.2723 26.1099 13.0265 26.028 12.7398 26.028H12.6988C12.2891 26.028 12.0434 26.1918 11.9205 26.3557C11.7566 26.5195 11.6337 26.7653 11.6337 26.9701V29.5509C11.6337 29.7557 11.4699 29.9605 11.2241 29.9605H8.88911C8.76622 29.9605 8.68429 29.9196 8.60237 29.8376C8.52044 29.7557 8.47947 29.6738 8.47947 29.5509V26.9701C8.43851 26.5195 8.06983 26.028 7.45537 26.028H7.4144C7.00476 26.028 6.75898 26.1918 6.63608 26.3557C6.47223 26.5195 6.34933 26.7653 6.34933 26.9701V29.5509C6.34933 29.7557 6.18548 29.9605 5.93969 29.9605H3.89148C5.61198 32.9919 8.80719 34.9582 11.5518 36.1871L13.4361 26.2737Z" fill="#BC955C"/>
<path d="M29.6173 22.5464H18.0244L18.5979 25.4548C18.8437 25.332 19.1304 25.25 19.4172 25.25C19.9497 25.25 20.4413 25.4139 20.81 25.7826C21.1377 26.1103 21.3425 26.5609 21.3425 26.9296V29.1007H22.8992V26.9296C22.8992 26.8886 22.8992 26.8886 22.8992 26.8886C22.9811 25.9464 23.7594 25.2091 24.7016 25.2091C25.2341 25.2091 25.7257 25.3729 26.0944 25.7416C26.4221 26.0693 26.6269 26.5199 26.6269 26.8886V29.0597H28.798C29.3305 27.8717 29.6583 26.5609 29.6583 25.0452L29.6173 22.5464Z" fill="#BC955C"/>
<path d="M5.61192 29.1415V26.9704C5.61192 26.5607 5.81674 26.1511 6.14445 25.8234C6.51313 25.4547 7.0047 25.2908 7.53724 25.2908C8.47941 25.3318 9.25773 26.0282 9.33966 26.9704C9.33966 27.0113 9.33966 27.0113 9.33966 27.0113V29.1824H10.8963V27.0113C10.8963 26.6017 11.1011 26.1921 11.4288 25.8643C11.7975 25.4957 12.2891 25.3318 12.8216 25.3318C13.1084 25.3318 13.3951 25.4137 13.6409 25.5366L14.2144 22.6282H2.58057V25.127C2.58057 26.6427 2.90828 27.9945 3.44081 29.1415H5.61192Z" fill="#BC955C"/>
<path d="M6.55433 20.9076H7.20976C7.25073 20.9895 7.29169 21.0715 7.29169 21.1534C7.29169 21.1943 7.29169 21.2763 7.29169 21.3172C7.29169 21.4401 7.25073 21.604 7.25073 21.7269H4.99769C4.66998 21.5221 4.50612 20.6208 4.50612 19.9245L5.48926 19.6377C5.65312 19.5967 5.77601 19.4329 5.77601 19.269V18.9004C5.77601 18.7775 5.69409 18.6546 5.61216 18.5726L4.46516 17.7534V17.0979L4.83384 16.8931C4.95673 16.8112 5.03866 16.6883 5.03866 16.5244V15.6642C5.03866 15.5003 4.95673 15.3774 4.79287 15.2955L4.42419 15.1726V14.5172H5.4483L5.93987 15.3365V16.4425L5.61216 17.5076C5.57119 17.6305 5.57119 17.7534 5.69409 17.8762C5.77601 17.9991 5.89891 18.0401 6.0218 18.0401H6.30855C6.51337 18.0401 6.67723 17.9172 6.71819 17.7124C6.75916 17.5485 6.84108 17.016 6.92301 16.8112C7.00494 16.6473 7.29169 16.2786 7.45555 16.0329C7.57844 15.869 7.57844 15.6642 7.45555 15.5413L6.14469 13.9846C6.10373 13.7389 6.06276 13.2063 6.14469 12.7967C6.22662 12.3461 6.55433 11.8135 6.63626 11.6497C6.67723 11.5678 6.71819 11.4858 6.67723 11.4039L6.63626 11.281H6.71819L8.3158 12.3051C8.39772 12.3461 8.43869 12.387 8.52062 12.387H9.01219L8.97122 12.8376L8.43869 13.0425C8.3158 13.1244 8.1929 13.2473 8.1929 13.4111V13.8208C8.1929 14.0256 8.35676 14.2304 8.60255 14.2304H9.95436L10.323 14.5991C10.4459 14.763 10.6917 14.763 10.8556 14.6401C10.8556 14.6401 11.47 14.1485 11.511 14.1075L11.7158 13.6569H12.5351V14.5581V15.0497C12.5351 15.0497 11.1014 15.5413 10.9785 15.5822C10.8965 15.6232 10.8146 16.0738 10.8556 16.1557C10.8965 16.2786 10.8556 16.3196 11.0194 16.4015C11.0194 16.4015 11.4291 16.7292 11.552 16.7702L11.9616 16.3606L12.4941 16.4425V17.7943L11.9616 18.163L10.2821 17.016C10.1182 16.8931 9.87244 16.9341 9.74954 17.0979L9.50376 17.4256C9.38087 17.5895 9.38087 17.8353 9.54472 17.9582L10.4869 18.8594V19.5967L9.50376 20.0064C9.3399 20.0883 9.25797 20.2112 9.25797 20.3751V20.5389C9.25797 20.7437 9.42183 20.9486 9.66762 20.9486H10.8146C11.0194 21.1943 10.9375 21.5221 10.8556 21.7678H8.23387C8.15194 21.6859 8.11097 21.5221 8.07001 21.3172C8.07001 21.2763 8.07001 21.1943 8.07001 21.1534C8.07001 20.9076 8.11097 20.6618 8.15194 20.498L8.7664 19.7196C8.80737 19.6377 8.84833 19.5558 8.84833 19.5148L8.8893 19.1461C8.8893 19.0232 8.80737 18.9004 8.72544 18.7775C8.64351 18.6546 8.47965 18.6955 8.35676 18.7365L7.37362 19.1461C7.25073 19.1871 7.1688 19.31 7.12783 19.4329L7.0459 19.8425L6.47241 20.0064C6.30855 20.0473 6.18566 20.2112 6.18566 20.3751V20.5389C6.14469 20.7437 6.34951 20.9076 6.55433 20.9076Z" fill="#BC955C"/>
<path d="M25.6435 20.9077H24.9881C24.9472 20.9896 24.9062 21.0716 24.9062 21.1535C24.9062 21.1945 24.9062 21.2764 24.9062 21.3174C24.9062 21.4402 24.9472 21.6041 24.9472 21.727H27.2002C27.5279 21.5222 27.6918 20.621 27.6918 19.9246L26.7086 19.6378C26.5448 19.5969 26.4219 19.433 26.4219 19.2691V18.9005C26.4219 18.7776 26.5038 18.6547 26.5857 18.5727L27.6918 17.7944V17.139L27.3231 16.9342C27.2002 16.8523 27.1183 16.7294 27.1183 16.5655V15.7053C27.1183 15.5414 27.2002 15.4185 27.364 15.3366L27.7327 15.2137V14.5583H26.7086L26.217 15.3775V16.4836L26.5448 17.5486C26.5857 17.6715 26.5857 17.7944 26.4628 17.9173C26.3809 18.0402 26.258 18.0812 26.1351 18.0812H25.8484C25.6435 18.0812 25.4797 17.9583 25.4387 17.7535C25.3978 17.5896 25.3158 17.0571 25.2339 16.8523C25.152 16.6884 24.8652 16.3197 24.7014 16.0739C24.5785 15.9101 24.5785 15.7053 24.7014 15.5824L26.0532 14.0257C26.0942 13.7799 26.1351 13.2474 26.0532 12.8378C25.9713 12.3872 25.6435 11.8546 25.5616 11.6908C25.5207 11.6088 25.4797 11.5269 25.5207 11.445L25.5616 11.3221H25.4797L23.8821 12.3462C23.8002 12.3872 23.7592 12.4281 23.6773 12.4281H23.2267L23.2676 13.0016L23.8002 13.2064C23.964 13.2884 24.0459 13.4113 24.0459 13.5751V13.9848C24.0459 14.1896 23.8821 14.3944 23.6363 14.3944H22.2845L21.9158 14.7631C21.7929 14.9269 21.5471 14.9269 21.3833 14.804C21.3833 14.804 20.7688 14.3125 20.7278 14.2715L20.523 13.8209H19.7037V14.7221V15.2137C19.7037 15.2137 21.1375 15.7053 21.2604 15.7462C21.3423 15.7872 21.4242 16.2378 21.3833 16.3197C21.3423 16.4426 21.3833 16.4836 21.2194 16.5655C21.2194 16.5655 20.8098 16.8932 20.6869 16.9342L20.2772 16.5245H19.7037V17.8764L20.2363 18.2041L21.9158 17.0571C22.0797 16.9342 22.3254 16.9751 22.4483 17.139L22.6941 17.4667C22.817 17.6306 22.817 17.8764 22.6532 17.9992L21.711 18.8595V19.5969L22.6941 20.0065C22.858 20.0884 22.9399 20.2113 22.9399 20.3752V20.539C22.9399 20.7439 22.7761 20.9487 22.5303 20.9487H21.3833C21.1784 21.1945 21.2604 21.5222 21.3423 21.768H24.005C24.0869 21.686 24.1279 21.5222 24.1688 21.3174C24.1688 21.2764 24.1688 21.1945 24.1688 21.1535C24.1688 20.9077 24.1279 20.6619 24.0869 20.4981L23.4724 19.7197C23.4315 19.6378 23.3905 19.5559 23.3905 19.5149L23.3496 19.1053C23.3496 18.9824 23.4315 18.8595 23.5134 18.7366C23.6363 18.6547 23.7592 18.6547 23.8821 18.6956L24.8652 19.1053C24.9881 19.1462 25.07 19.2691 25.111 19.392L25.1929 19.8017L25.7664 19.9655C25.9303 20.0065 26.0532 20.1704 26.0532 20.3342V20.4981C26.0532 20.7439 25.8893 20.9077 25.6435 20.9077Z" fill="#BC955C"/>
<path d="M87.8682 17.4258C87.8682 15.9101 88.9742 14.5583 90.6128 14.5583C91.514 14.5583 92.0875 14.8041 92.661 15.2956L92.2513 15.7463C91.8417 15.3776 91.3501 15.0908 90.5718 15.0908C89.3838 15.0908 88.4826 16.1149 88.4826 17.3439V17.3848C88.4826 18.6957 89.3019 19.6788 90.6537 19.6788C91.3092 19.6788 91.8417 19.433 92.2513 19.1463V17.7535H90.5718V17.221H92.8248V19.3921C92.3333 19.8427 91.5549 20.2114 90.6128 20.2114C88.9742 20.2523 87.8682 18.9824 87.8682 17.4258Z" fill="#9F2241"/>
<path d="M99.8709 17.4258C99.8709 16.1559 98.9696 15.1318 97.6998 15.1318C96.4708 15.1318 95.5696 16.1559 95.5696 17.3848V17.4258C95.5696 18.6547 96.4708 19.6788 97.7407 19.6788C98.9696 19.6788 99.8709 18.6547 99.8709 17.4258ZM94.9142 17.4258C94.9142 15.9101 96.0612 14.5583 97.6998 14.5583C99.3793 14.5583 100.485 15.8691 100.485 17.3848V17.4258C100.485 18.9415 99.3383 20.2523 97.6998 20.2523C96.0202 20.2523 94.9142 18.9005 94.9142 17.4258Z" fill="#9F2241"/>
<path d="M105.073 17.6305H103.353V19.5558H105.196C106.015 19.5558 106.548 19.1872 106.548 18.5727C106.507 17.9992 106.015 17.6305 105.073 17.6305ZM106.22 16.1148C106.22 15.5823 105.77 15.2136 105.032 15.2136H103.353V17.098H104.991C105.688 17.098 106.22 16.7703 106.22 16.1148ZM102.697 14.6401H105.032C105.688 14.6401 106.138 14.804 106.466 15.1317C106.671 15.3775 106.835 15.6642 106.835 15.992V16.0329C106.835 16.7703 106.384 17.098 105.975 17.3028C106.63 17.5076 107.162 17.8763 107.162 18.6137V18.6546C107.162 19.5968 106.384 20.1293 105.155 20.1293H102.738L102.697 14.6401Z" fill="#9F2241"/>
<path d="M110.908 14.6401H110.293V20.1293H110.908V14.6401Z" fill="#9F2241"/>
<path d="M113.448 14.6401H117.421V15.2136H114.062V17.098H117.052V17.6305H114.062V19.5968H117.462V20.1293H113.448V14.6401Z" fill="#9F2241"/>
<path d="M121.804 17.4667C122.624 17.4667 123.197 17.057 123.197 16.3197V16.2787C123.197 15.5823 122.665 15.2136 121.804 15.2136H120.125V17.4667H121.804ZM119.469 14.6401H121.845C122.542 14.6401 123.033 14.845 123.402 15.1727C123.648 15.4185 123.812 15.8281 123.812 16.2377V16.2787C123.812 17.1799 123.156 17.7125 122.337 17.8763L124.017 20.1293H123.238L121.641 17.9992H120.125V20.1293H119.51L119.469 14.6401Z" fill="#9F2241"/>
<path d="M126.065 14.6401H126.638L130.079 19.0643V14.6401H130.694V20.1293H130.202L126.679 15.6233V20.1293H126.065V14.6401Z" fill="#9F2241"/>
<path d="M137.862 17.4258C137.862 16.1559 136.961 15.1318 135.691 15.1318C134.421 15.1318 133.561 16.1559 133.561 17.3848V17.4258C133.561 18.6547 134.462 19.6788 135.732 19.6788C136.961 19.6788 137.862 18.6547 137.862 17.4258ZM132.906 17.4258C132.906 15.9101 134.053 14.5583 135.691 14.5583C137.371 14.5583 138.477 15.8691 138.477 17.3848V17.4258C138.477 18.9415 137.33 20.2523 135.691 20.2523C134.012 20.2523 132.906 18.9005 132.906 17.4258Z" fill="#9F2241"/>
<path d="M144.212 15.2137V19.5559H145.523C146.916 19.5559 147.817 18.6137 147.817 17.4258V17.3848C147.817 16.1968 146.957 15.2137 145.523 15.2137H144.212ZM143.598 14.6402H145.523C147.243 14.6402 148.431 15.8282 148.431 17.3438V17.3848C148.431 18.9005 147.243 20.1294 145.523 20.1294H143.598V14.6402Z" fill="#9F2241"/>
<path d="M150.357 14.6401H154.33V15.2136H150.971V17.098H153.961V17.6305H150.971V19.5968H154.371V20.1293H150.357V14.6401Z" fill="#9F2241"/>
<path d="M159.286 14.6401H159.901V19.5968H162.973V20.1293H159.286V14.6401Z" fill="#9F2241"/>
<path d="M168.34 18.1221L167.111 15.3365L165.882 18.1221H168.34ZM166.783 14.6401H167.356L169.855 20.1703H169.2L168.544 18.7366H165.554L164.899 20.1703H164.243L166.783 14.6401Z" fill="#9F2241"/>
<path d="M88.746 26.8063C88.746 25.2087 89.9339 23.9388 91.6135 23.9388C92.6376 23.9388 93.252 24.3075 93.7846 24.7991L93.0062 25.6593C92.5966 25.2497 92.146 25.0449 91.6135 25.0449C90.7123 25.0449 90.0159 25.8232 90.0159 26.7654V26.8063C90.0159 27.7485 90.6713 28.5268 91.6135 28.5268C92.2689 28.5268 92.6376 28.2811 93.0472 27.8714L93.8255 28.6497C93.252 29.2642 92.6376 29.6329 91.5725 29.6329C89.9339 29.6329 88.746 28.363 88.746 26.8063Z" fill="#9F2241"/>
<path d="M95.9559 24.0619H94.7679V29.5511H95.9559V24.0619Z" fill="#9F2241"/>
<path d="M97.3898 27.2181V24.1048H98.5777V27.1771C98.5777 28.0783 99.0283 28.5289 99.7657 28.5289C100.503 28.5289 100.954 28.0783 100.954 27.2181V24.1048H102.142V27.1771C102.142 28.8566 101.199 29.635 99.7247 29.635C98.291 29.635 97.3898 28.8157 97.3898 27.2181Z" fill="#9F2241"/>
<path d="M105.705 28.4452C106.689 28.4452 107.344 27.7898 107.344 26.8066C107.344 25.8235 106.689 25.168 105.705 25.168H104.763V28.4861L105.705 28.4452ZM103.534 24.062H105.664C107.385 24.062 108.573 25.25 108.573 26.7656V26.8066C108.573 28.3223 107.385 29.5512 105.664 29.5512H103.534V24.062Z" fill="#9F2241"/>
<path d="M112.505 27.2572L111.768 25.4958L111.031 27.2572H112.505ZM111.277 24.0211H112.383L114.718 29.5512H113.448L112.956 28.3223H110.621L110.13 29.5512H108.901L111.277 24.0211Z" fill="#9F2241"/>
<path d="M117.749 28.4451C118.732 28.4451 119.387 27.7896 119.387 26.8065C119.387 25.8233 118.732 25.1679 117.749 25.1679H116.807V28.486L117.749 28.4451ZM115.578 24.0619H117.708C119.428 24.0619 120.616 25.2499 120.616 26.7655V26.8065C120.616 28.3222 119.428 29.5511 117.708 29.5511H115.578V24.0619Z" fill="#9F2241"/>
<path d="M126.31 28.4452C127.293 28.4452 127.949 27.7898 127.949 26.8066C127.949 25.8235 127.293 25.168 126.31 25.168H125.368V28.4861L126.31 28.4452ZM124.139 24.062H126.269C127.99 24.062 129.178 25.25 129.178 26.7656V26.8066C129.178 28.3223 127.99 29.5512 126.269 29.5512H124.139V24.062Z" fill="#9F2241"/>
<path d="M130.366 24.0619H134.503V25.127H131.554V26.233H134.134V27.2981H131.554V28.486H134.544V29.5511H130.366V24.0619Z" fill="#9F2241"/>
<path d="M138.026 24.0619H139.337L140.77 26.3559L142.204 24.0619H143.515V29.5511H142.327V25.9462L140.77 28.2812H140.73L139.214 25.9872V29.5511H138.026V24.0619Z" fill="#9F2241"/>
<path d="M147.243 22.2593L148.267 22.7099L147.243 23.6521H146.342L147.243 22.2593ZM144.949 24.0618H149.086V25.1268H146.137V26.2329H148.718V27.2979H146.137V28.4449H149.127V29.51H144.949V24.0618Z" fill="#9F2241"/>
<path d="M151.831 26.7655L149.988 24.0619H151.381L152.528 25.8234L153.716 24.0619H155.067L153.224 26.7246L155.149 29.5511H153.757L152.487 27.6667L151.258 29.5511H149.906L151.831 26.7655Z" fill="#9F2241"/>
<path d="M157.238 24.0619H156.05V29.5511H157.238V24.0619Z" fill="#9F2241"/>
<path d="M158.467 26.8063C158.467 25.2087 159.655 23.9388 161.335 23.9388C162.359 23.9388 162.973 24.3075 163.506 24.7991L162.727 25.6593C162.318 25.2497 161.867 25.0449 161.335 25.0449C160.433 25.0449 159.737 25.8232 159.737 26.7654V26.8063C159.737 27.7485 160.392 28.5268 161.335 28.5268C161.99 28.5268 162.359 28.2811 162.768 27.8714L163.547 28.6497C162.973 29.2642 162.359 29.6329 161.294 29.6329C159.655 29.6329 158.467 28.363 158.467 26.8063Z" fill="#9F2241"/>
<path d="M168.627 26.8063C168.627 25.8232 167.93 25.0858 166.947 25.0858C165.964 25.0858 165.309 25.8642 165.309 26.8063V26.8473C165.309 27.7895 166.005 28.5678 166.988 28.5678C167.971 28.5268 168.627 27.7485 168.627 26.8063ZM164.08 26.8063C164.08 25.2087 165.309 23.9388 166.988 23.9388C168.668 23.9388 169.897 25.2087 169.897 26.7654V26.8063C169.897 28.363 168.668 29.6329 166.988 29.6329C165.309 29.6329 164.08 28.363 164.08 26.8063Z" fill="#9F2241"/>
</svg>
