<svg xmlns="http://www.w3.org/2000/svg" width="192" height="48" viewBox="0 0 192 48">
    <g fill="none" fill-rule="evenodd">
        <g fill="#FFF" fill-rule="nonzero">
            <g>
                <g>
                    <path d="M63.763 26.541c.252.382.599.554 1.087.567.665.016 1.09-.636 1.09-.636L76.961 12.35c.907-.95 1.808-.182 1.808-.182.871.907.221 1.743.221 1.743l-2.464 3.153v.018c-.436.449-.459 1.155-.052 1.63v.005l2.48 3.144 7.812-9.936-3.121-3.98-.577-.75c-.507-.728-1.638-.896-1.638-.896h-4.678c-.733-.002-1.43.31-1.917.858L61.734 23.966l2.029 2.575zM63.208 17.923l-3.134-4.014c-.638-1.028.292-1.762.292-1.762 1.17-.68 1.85.37 1.85.37l2.592 3.33 3.07-3.954L64.34 7.34c-.473-.705-1.286-1.103-2.133-1.044h-4.224c-1.352 0-1.933.841-1.933.841l-3.737 4.743 7.812 9.978 3.083-3.936z" transform="translate(-167 -1209) translate(0 1175) translate(167 34)"/>
                    <path d="M75.287 21.349s-.36-.559-1.055-.547c-.723.01-1.016.491-1.016.491l-11.135 14.3c-.901.991-1.873.194-1.873.194-.871-.911-.156-1.755-.156-1.755l2.494-3.208v-.016c.436-.449.458-1.155.052-1.63v-.005l-2.48-3.143-7.835 10.048 4.37 5.53 6.867.019 13.816-17.665-2.05-2.613zM75.863 29.966l3.16 4.066c.728 1.01-.19 1.755-.19 1.755-1.21.815-1.956-.402-1.956-.402l-2.646-3.36-3.068 3.956 4.427 5.665 6.815-.017 4.37-5.601-7.83-10-3.082 3.938zM86.717 25.665c-.682.006-1.3-.4-1.565-1.028-.265-.628-.125-1.354.355-1.838s1.204-.631 1.835-.372c.63.26 1.041.874 1.041 1.556.004.924-.742 1.677-1.666 1.682m0-4.81c-1.748 0-3.169 1.403-3.169 3.128 0 1.724 1.421 3.128 3.169 3.128 1.747 0 3.169-1.404 3.169-3.128 0-1.725-1.422-3.128-3.17-3.128M69.518 1.493c.682-.008 1.301.397 1.567 1.025.267.628.128 1.354-.352 1.84-.48.484-1.204.632-1.835.372-.631-.259-1.043-.873-1.043-1.555-.003-.923.74-1.675 1.663-1.682m0 4.81c1.748 0 3.17-1.404 3.17-3.128 0-1.724-1.422-3.128-3.17-3.128S66.35 1.45 66.35 3.175c0 1.724 1.421 3.128 3.168 3.128M50.607 23.97c.009-.918.758-1.657 1.677-1.651.919.005 1.66.753 1.657 1.671-.002.919-.747 1.662-1.666 1.662-.925-.005-1.67-.757-1.668-1.681m4.839 0c0-1.725-1.422-3.128-3.17-3.128-1.747 0-3.17 1.403-3.17 3.128 0 1.724 1.423 3.127 3.17 3.127 1.748 0 3.17-1.403 3.17-3.127M36.442 3.156H.033v24.277c0 13.325 18.196 17.34 18.196 17.34h.017s18.196-4.015 18.196-17.34V3.156zm-.886.886v23.39c0 2.834-.891 5.452-2.65 7.778-1.432 1.896-3.442 3.613-5.972 5.103-3.876 2.283-7.813 3.334-8.694 3.553-.877-.217-4.784-1.256-8.656-3.53-2.541-1.49-4.559-3.208-5.998-5.106C1.814 32.897.92 30.274.92 27.433V4.042h34.637z" transform="translate(-167 -1209) translate(0 1175) translate(167 34)"/>
                    <path d="M22.648 10.927v-2.23h-2.294v2.081h-.896V8.697h-2.362v2.081H16.2V8.697h-2.33v2.231l1.133 1.955c.04.069.06.147.06.227l.01 10.204h1.105l-.012-3.666c0-.865.983-1.652 2.064-1.652 1.082 0 2.065.787 2.065 1.65l.011 3.668h1.134l-.004-3.87v-1.971-1.427V13.108c0-.079.022-.157.062-.226l1.15-1.955zM14.18 23.555v-3.383l-.407.244c-.15.09-.338.085-.482-.013l-.492-.337v.043l-.018 1.304c-.001.135-.064.262-.17.346.05.017.099.042.142.075.595.479.64 1.164.511 1.72h.917z" transform="translate(-167 -1209) translate(0 1175) translate(167 34)"/>
                    <path d="M18.233 18.898c-.688 0-1.17.489-1.17.756l.011 3.669h2.338l-.01-3.67c0-.266-.482-.755-1.17-.755" transform="translate(-167 -1209) translate(0 1175) translate(167 34)"/>
                    <path d="M4.584 23.555c-.14-.33-.237-.675-.287-1.029-.07-.458-.1-.921-.088-1.384.007-.19.133-.355.315-.411l.983-.303-1.11-.781c-.118-.084-.188-.22-.188-.365v-1.24c0-.168.092-.32.24-.398l.432-.226v-.422l-.394-.159c-.168-.07-.278-.233-.28-.415v-1.491c0-.246.199-.446.445-.449l1.381-.012c-.024-.366-.031-.866.057-1.28.12-.56.439-1.167.59-1.436l-.075-.518c-.019-.128.02-.258.104-.356.086-.097.21-.152.339-.151h.745c.085 0 .168.024.24.07l1.821 1.153h.837c.122 0 .239.05.323.139.085.088.13.207.125.329l-.063 1.436c-.006.118-.059.23-.146.31h.556c.122.001.238.05.322.138l.254.263.192-.147.324-.68c.074-.156.231-.256.404-.256h1.189v-.256l-1.134-1.954c-.04-.07-.062-.147-.061-.227V8.25c0-.119.047-.233.13-.317.085-.084.199-.13.318-.13H23.1c.248 0 .448.2.448.447v2.797c0 .08-.021.158-.062.227l-1.16 1.954v.252h1.178c.173 0 .33.1.405.256l.323.68.192.147.255-.263c.084-.087.2-.137.32-.137h.558c-.088-.08-.14-.192-.146-.311l-.063-1.436c-.005-.122.04-.241.124-.33.085-.087.201-.137.323-.137h.838l1.821-1.155c.072-.045.154-.07.24-.07h.744c.13 0 .253.057.338.155.085.098.124.228.105.356l-.075.518c.151.27.47.877.59 1.436.09.414.081.914.057 1.28l1.382.013c.246.002.444.202.444.448v1.491c0 .183-.11.347-.279.415l-.393.159v.422l.431.227c.148.077.241.23.241.396v1.24c0 .146-.07.282-.188.366l-1.106.782.98.303c.18.056.307.221.314.41.012.464-.018.927-.088 1.385-.05.354-.148.7-.289 1.029h1.649V6.254H2.962v17.3h1.623z" transform="translate(-167 -1209) translate(0 1175) translate(167 34)"/>
                    <path d="M23.738 21.836c.042-.034.09-.06.142-.076-.107-.083-.17-.21-.173-.346l-.016-1.307v-.044l-.492.337c-.144.099-.333.105-.483.015l-.384-.232v3.37h.89c-.128-.558-.084-1.242.513-1.72M29.684 32.806c-.119 0-.233-.047-.317-.131-.084-.084-.13-.198-.13-.317v-2.925c0-.218-.132-.488-.335-.687-.243-.243-.576-.373-.92-.36-.686.012-1.098.544-1.155 1.069v2.903c0 .119-.048.232-.131.317-.084.084-.198.132-.317.131h-2.662c-.119 0-.232-.047-.316-.131-.084-.084-.13-.198-.13-.317v-2.925c0-.218-.133-.488-.335-.687-.244-.242-.577-.372-.92-.36-.287.003-.563.114-.773.31l2.188 11.158c3.079-1.365 6.728-3.59 8.693-7.046l-2.44-.002zM22.569 40.133L19.494 24.45h-2.495l-3.074 15.688c-.004.02-.01.042-.018.062 2.135.876 3.868 1.322 4.351 1.474.491-.152 2.213-.597 4.333-1.465-.01-.024-.017-.05-.022-.075M15.256 28.682c-.21-.186-.48-.29-.76-.292h-.025c-.335-.005-.657.124-.895.36-.203.199-.334.468-.334.686v2.927c0 .118-.047.232-.131.316-.084.084-.198.13-.317.13H10.13c-.247 0-.447-.2-.448-.447v-2.904c-.057-.526-.469-1.059-1.155-1.068h-.025c-.335-.005-.657.124-.895.36-.203.199-.335.468-.335.686v2.927c0 .118-.047.232-.13.316-.085.084-.198.13-.317.13H4.399c1.966 3.445 5.599 5.67 8.671 7.035l2.186-11.162z" transform="translate(-167 -1209) translate(0 1175) translate(167 34)"/>
                    <path d="M33.533 24.45H20.405l.645 3.289c.292-.157.618-.24.949-.246.582-.013 1.145.209 1.562.616.378.37.605.866.605 1.324v2.48h1.764v-2.48-.04c.093-1.063.975-1.883 2.041-1.9.583-.015 1.147.207 1.563.616.378.37.6.866.6 1.324v2.48h2.447c.651-1.43.984-2.985.976-4.556v-2.909h-.021M6.379 31.914v-2.479c0-.459.227-.954.605-1.325.416-.406.977-.628 1.559-.616 1.064.02 1.942.84 2.035 1.9v2.52h1.765v-2.479c0-.459.227-.954.605-1.325.417-.407.98-.629 1.562-.616.325.005.644.086.932.237l.642-3.28H2.963v2.906c-.009 1.572.325 3.127.978 4.557h2.438zM7.432 22.633h.726c.055.092.09.195.103.302 0 .06.006.12.01.182-.003.149-.023.296-.06.44H5.67c-.368-.25-.55-1.246-.566-2.064l1.112-.344c.187-.06.315-.233.316-.429v-.428c0-.146-.07-.282-.189-.366l-1.239-.877v-.737l.432-.227c.148-.077.24-.23.24-.397v-.992c0-.183-.11-.347-.279-.416l-.393-.159v-.745l1.174-.011.558.913v1.276l-.384 1.21c-.043.135-.019.284.065.4.085.115.22.183.362.183h.34c.219 0 .406-.16.44-.378.033-.198.14-.77.24-1.028.075-.2.396-.628.597-.869.142-.169.14-.415-.005-.582l-1.536-1.766c-.03-.267-.085-.898.01-1.344.105-.486.442-1.103.562-1.3.055-.09.076-.195.061-.298l-.022-.16h.099l1.82 1.153c.072.045.155.07.24.07h.499l-.03.668-.586.213c-.179.064-.297.234-.296.424v.46c.002.245.201.443.447.444l1.533.005.4.414c.158.165.415.184.595.045 0 0 .697-.554.728-.62l.249-.522h.893v1.63s-1.634.56-1.77.627c-.106.053-.165.559-.146.68.019.122.012.171.188.303 0 0 .476.378.621.426l.475-.454.63.043v1.512l-.605.36-1.878-1.285c-.195-.132-.46-.091-.605.094l-.294.378c-.144.183-.124.445.047.604l1.075 1.007-.011.819-1.074.472c-.16.073-.264.233-.266.41v.183c0 .247.201.448.449.448h1.297c.227.278.136.672.041.923h-2.99c-.101-.107-.15-.295-.176-.506 0-.057-.004-.115-.01-.173-.005-.25.017-.5.068-.746l.695-.89c.058-.073.091-.162.095-.255l.02-.427c.008-.153-.064-.299-.189-.387-.125-.088-.286-.106-.428-.048l-1.121.458c-.147.06-.251.192-.274.349l-.067.448-.651.197c-.19.057-.319.23-.32.428v.182c.001.247.202.447.449.447M29.056 22.633h-.727c-.054.092-.089.195-.102.302 0 .06-.005.12-.01.182.003.149.023.296.06.44h2.544c.367-.25.55-1.246.566-2.064l-1.113-.344c-.187-.06-.315-.233-.316-.429v-.428c0-.146.07-.282.19-.366l1.236-.877v-.737l-.431-.227c-.149-.077-.242-.23-.241-.397v-.992c0-.183.11-.347.28-.416l.392-.159v-.745l-1.173-.011-.558.913-.004 1.276.384 1.21c.043.135.018.284-.066.4-.084.115-.219.183-.361.183h-.34c-.22 0-.407-.16-.441-.378-.033-.198-.139-.77-.24-1.028-.075-.2-.395-.628-.596-.869-.142-.169-.14-.415.005-.582l1.54-1.767c.03-.266.084-.897-.01-1.344-.105-.486-.442-1.103-.563-1.3-.054-.09-.076-.194-.062-.297l.023-.16h-.099l-1.82 1.153c-.071.045-.154.07-.24.07h-.499l.03.668.587.213c.178.065.296.234.295.424v.46c-.002.245-.2.443-.446.444l-1.533.005-.401.414c-.157.165-.414.184-.594.045 0 0-.698-.554-.728-.62l-.249-.522h-.896v1.63s1.633.56 1.769.627c.107.053.165.559.147.68-.018.122-.013.171-.188.303 0 0-.477.378-.622.426l-.475-.454-.63.043v1.512l.601.36 1.88-1.285c.194-.133.459-.092.604.094l.295.378c.144.183.123.446-.047.604l-1.074 1.007.01.819 1.078.478c.161.074.265.233.267.41v.183c0 .119-.048.233-.132.317-.084.084-.198.13-.317.13H24.2c-.227.28-.137.673-.043.924h2.99c.101-.107.151-.295.175-.506 0-.057.005-.115.01-.172.007-.251-.015-.502-.066-.747l-.696-.896c-.057-.073-.09-.162-.095-.255l-.016-.425c-.008-.153.064-.3.189-.388.125-.088.287-.106.428-.048l1.122.456c.146.06.25.193.274.35l.066.448.652.196c.189.057.318.231.318.429v.181c0 .119-.047.233-.131.317-.084.084-.198.13-.317.13M99.47 18.663v-.016c0-1.702 1.25-3.21 3.111-3.21 1.047 0 1.693.303 2.314.826l-.454.529c-.48-.416-1.01-.71-1.89-.71-1.374 0-2.358 1.161-2.358 2.544v.018c0 1.48.948 2.578 2.454 2.578.65-.002 1.28-.22 1.791-.62V19.06h-1.89v-.63h2.56v2.474c-.687.61-1.575.947-2.494.948-1.95 0-3.155-1.418-3.155-3.191M113.012 18.663v-.016c0-1.41-1.03-2.562-2.447-2.562s-2.429 1.134-2.429 2.544v.018c0 1.409 1.028 2.56 2.446 2.56 1.418 0 2.43-1.133 2.43-2.544m-5.603 0v-.016c0-1.71 1.285-3.21 3.175-3.21s3.156 1.48 3.156 3.192v.018c0 1.71-1.285 3.207-3.175 3.207s-3.156-1.48-3.156-3.19M118.895 18.93h-1.96v2.192h2.084c.94 0 1.524-.417 1.524-1.108v-.018c0-.674-.567-1.064-1.648-1.064m1.305-1.748c0-.612-.487-1.01-1.373-1.01h-1.89v2.136h1.835c.842 0 1.427-.382 1.427-1.109l.001-.017zm-3.952-1.64h2.64c.71 0 1.268.205 1.623.55.261.264.405.622.398.992v.019c0 .806-.496 1.222-.982 1.436.736.221 1.329.646 1.329 1.497v.018c0 1.063-.895 1.693-2.25 1.693h-2.757l-.001-6.205zM123.756 15.544H124.756V21.747H123.756zM127.29 15.544L131.773 15.544 131.773 16.182 127.989 16.182 127.989 18.3 131.376 18.3 131.376 18.938 127.989 18.938 127.989 21.109 131.818 21.109 131.818 21.748 127.29 21.748zM136.746 18.708c.93 0 1.595-.479 1.595-1.276v-.017c0-.762-.585-1.224-1.587-1.224h-1.914v2.517h1.906zm-2.605-3.164h2.667c.763 0 1.374.231 1.764.62.316.328.488.769.479 1.224v.017c0 1.028-.71 1.631-1.684 1.809l1.905 2.534h-.86l-1.798-2.411h-1.774v2.411h-.699v-6.204zM141.574 15.544L142.229 15.544 146.139 20.517 146.139 15.544 146.82 15.544 146.82 21.748 146.263 21.748 142.256 16.661 142.256 21.748 141.574 21.748zM154.928 18.663v-.016c0-1.41-1.029-2.562-2.446-2.562-1.417 0-2.428 1.134-2.428 2.544v.018c0 1.409 1.026 2.56 2.445 2.56 1.418 0 2.43-1.133 2.43-2.544m-5.602 0v-.016c0-1.71 1.285-3.21 3.175-3.21s3.154 1.48 3.154 3.192v.018c0 1.71-1.286 3.207-3.176 3.207-1.89 0-3.155-1.48-3.155-3.19M162.089 16.191v4.91h1.454c1.568 0 2.57-1.064 2.57-2.438v-.016c0-1.375-1.002-2.456-2.57-2.456h-1.454zm-.7-.647h2.154c1.949 0 3.296 1.34 3.296 3.085v.018c0 1.744-1.347 3.099-3.296 3.099h-2.154v-6.202zM169.064 15.544L173.548 15.544 173.548 16.182 169.764 16.182 169.764 18.3 173.149 18.3 173.149 18.938 169.764 18.938 169.764 21.109 173.593 21.109 173.593 21.748 169.064 21.748zM179.168 15.544L179.867 15.544 179.867 21.1 183.361 21.1 183.361 21.748 179.168 21.748zM189.386 19.47l-1.41-3.154-1.417 3.154h2.827zm-1.728-3.97h.656l2.828 6.248h-.756l-.725-1.64h-3.376l-.736 1.639h-.718l2.827-6.247zM99.335 29.299v-.017c0-1.764 1.329-3.21 3.234-3.21 1.17 0 1.87.39 2.447.958l-.869 1.001c-.478-.434-.966-.7-1.587-.7-1.047 0-1.8.87-1.8 1.933v.018c0 1.062.736 1.948 1.8 1.948.708 0 1.143-.282 1.63-.726l.868.877c-.638.68-1.346 1.108-2.543 1.108-1.826 0-3.181-1.41-3.181-3.19M106.189 26.179H107.55399999999999V32.382H106.189zM109.129 29.724V26.18h1.365v3.51c0 1.01.505 1.533 1.338 1.533.833 0 1.338-.505 1.338-1.488V26.18h1.361v3.501c0 1.879-1.058 2.797-2.721 2.797s-2.685-.93-2.685-2.756M118.506 31.15c1.117 0 1.87-.755 1.87-1.851v-.017c0-1.1-.756-1.87-1.87-1.87h-1.054v3.739h1.054zm-2.419-4.97h2.42c1.949 0 3.297 1.338 3.297 3.084v.018c0 1.745-1.348 3.099-3.298 3.099h-2.419v-6.202zM126.263 29.786l-.825-2.011-.824 2.011h1.65zm-1.436-3.65h1.259l2.657 6.247h-1.427l-.567-1.39h-2.618l-.567 1.39h-1.398l2.66-6.248zM132.151 31.15c1.118 0 1.87-.755 1.87-1.851v-.017c0-1.1-.755-1.87-1.87-1.87h-1.054v3.739h1.054zm-2.419-4.97h2.42c1.95 0 3.296 1.338 3.296 3.084v.018c0 1.745-1.347 3.099-3.297 3.099h-2.419v-6.202zM141.83 31.15c1.116 0 1.87-.755 1.87-1.851v-.017c0-1.1-.756-1.87-1.87-1.87h-1.054v3.739h1.053zm-2.42-4.97h2.42c1.95 0 3.296 1.338 3.296 3.084v.018c0 1.745-1.346 3.099-3.297 3.099h-2.419v-6.202zM146.422 26.179L151.101 26.179 151.101 27.394 147.778 27.394 147.778 28.653 150.702 28.653 150.702 29.867 147.778 29.867 147.778 31.169 151.145 31.169 151.145 32.382 146.422 32.382zM155.107 26.179L156.578 26.179 158.209 28.803 159.839 26.179 161.31 26.179 161.31 32.382 159.954 32.382 159.954 28.332 158.209 30.983 158.174 30.983 156.446 28.359 156.446 32.382 155.107 32.382zM165.535 24.123l1.16.507-1.133 1.062h-1.029l1.002-1.569zm-2.597 2.056h4.679v1.215h-3.323v1.259h2.928v1.213h-2.924v1.303h3.368v1.213h-4.724l-.004-6.203zM170.702 29.228L168.627 26.179 170.222 26.179 171.525 28.191 172.837 26.179 174.389 26.179 172.315 29.21 174.476 32.383 172.882 32.383 171.49 30.256 170.09 32.383 168.539 32.383zM175.523 26.179H176.888V32.382H175.523zM178.208 29.299v-.017c0-1.764 1.329-3.21 3.235-3.21 1.17 0 1.87.39 2.447.958l-.868 1.001c-.479-.434-.966-.7-1.588-.7-1.046 0-1.798.87-1.798 1.933v.018c0 1.062.735 1.948 1.798 1.948.709 0 1.144-.282 1.63-.726l.87.877c-.64.68-1.348 1.108-2.544 1.108-1.826 0-3.182-1.41-3.182-3.19M189.745 29.299v-.017c0-1.065-.781-1.95-1.88-1.95-1.098 0-1.86.869-1.86 1.932v.018c0 1.062.779 1.948 1.878 1.948 1.099 0 1.862-.868 1.862-1.931m-5.167 0v-.017c0-1.764 1.39-3.21 3.305-3.21 1.914 0 3.288 1.428 3.288 3.192v.018c0 1.763-1.391 3.207-3.306 3.207-1.914 0-3.287-1.427-3.287-3.19M69.518 43.12c.682-.007 1.301.398 1.567 1.026.267.628.128 1.354-.352 1.839-.48.485-1.204.632-1.835.373-.631-.26-1.043-.874-1.043-1.555-.003-.923.74-1.675 1.663-1.682m0 4.81c1.748 0 3.17-1.404 3.17-3.128 0-1.725-1.422-3.128-3.17-3.128s-3.168 1.403-3.168 3.128c0 1.724 1.421 3.127 3.168 3.127" transform="translate(-167 -1209) translate(0 1175) translate(167 34)"/>
                </g>
            </g>
        </g>
    </g>
</svg>
