<?xml version="1.0" encoding="UTF-8" standalone="no"?>
<svg
   width="244"
   height="56"
   viewBox="0 0 244 56"
   fill="none"
   version="1.1"
   id="svg55"
   sodipodi:docname="btnLlaveExpediente.svg"
   inkscape:version="1.2.2 (732a01da63, 2022-12-09)"
   xmlns:inkscape="http://www.inkscape.org/namespaces/inkscape"
   xmlns:sodipodi="http://sodipodi.sourceforge.net/DTD/sodipodi-0.dtd"
   xmlns="http://www.w3.org/2000/svg"
   xmlns:svg="http://www.w3.org/2000/svg">
  <sodipodi:namedview
     id="namedview57"
     pagecolor="#ffffff"
     bordercolor="#000000"
     borderopacity="0.25"
     inkscape:showpageshadow="2"
     inkscape:pageopacity="0.0"
     inkscape:pagecheckerboard="0"
     inkscape:deskcolor="#d1d1d1"
     showgrid="false"
     inkscape:zoom="4.9590164"
     inkscape:cx="122"
     inkscape:cy="28.231405"
     inkscape:window-width="1920"
     inkscape:window-height="1017"
     inkscape:window-x="-8"
     inkscape:window-y="-8"
     inkscape:window-maximized="1"
     inkscape:current-layer="svg55" />
  <path
     d="M234.856 54.8147C238.717 54.8147 241.846 51.685 241.846 47.8242L241.846 8.17582C241.846 4.31504 238.717 1.18526 234.856 1.18526L8.1756 1.18526C4.31484 1.18526 1.18504 4.31504 1.18504 8.17581L1.18504 47.8242C1.18504 51.685 4.31482 54.8147 8.1756 54.8147L234.856 54.8147Z"
     fill="white"
     fill-opacity="0.9"
     stroke="#EFEFEF"
     stroke-width="2.37052"
     id="path2" />
  <path
     d="M159.612 32.0399C161.014 37.5535 157.667 43.1808 152.151 44.5828C149.48 45.2613 146.704 44.8598 144.336 43.4513C141.968 42.0429 140.289 39.795 139.61 37.1241C138.208 31.6105 141.555 25.9832 147.069 24.5812C147.683 24.4245 148.052 23.8018 147.898 23.1878C147.741 22.5737 147.118 22.2044 146.504 22.359C139.767 24.0723 135.677 30.9492 137.39 37.6866C138.219 40.9501 140.271 43.6961 143.166 45.418C146.06 47.1399 149.452 47.6316 152.718 46.8007C156.144 45.929 158.886 43.724 160.529 40.8792C162.115 38.131 162.676 34.786 161.834 31.4731C161.677 30.8591 161.055 30.4898 160.441 30.6444C159.827 30.8011 159.457 31.4237 159.612 32.0378V32.0399Z"
     fill="url(#paint0_linear_3694_81378)"
     id="path4" />
  <path
     d="M167.251 14.9136L164.29 13.2045L164.964 12.0344C165.522 11.0661 165.192 9.82941 164.224 9.27119C163.255 8.71296 162.019 9.0436 161.46 10.0119L150.661 28.7168C147.563 28.1585 144.535 30.1102 143.803 33.2105C143.045 36.4181 145.031 39.6322 148.239 40.3901C151.447 41.148 154.661 39.162 155.419 35.9544C155.869 34.0435 155.341 32.1327 154.167 30.7371L161.351 18.293L164.312 20.002C164.445 20.0793 164.614 20.0342 164.692 19.9011L165.516 18.4733C165.593 18.3402 165.548 18.1706 165.415 18.0933L164.32 17.4621L165.048 16.2039C165.048 16.2039 165.05 16.1932 165.054 16.1867L166.152 16.8201C166.285 16.8974 166.454 16.8523 166.532 16.7192L167.356 15.2914C167.433 15.1583 167.386 14.9887 167.255 14.9114L167.251 14.9136ZM150.341 36.2421C149.39 36.6478 148.288 36.2056 147.883 35.2544C147.477 34.3033 147.919 33.2019 148.87 32.7961C149.821 32.3903 150.923 32.8326 151.329 33.7837C151.734 34.7348 151.292 35.8363 150.341 36.2421Z"
     fill="#BFBFBE"
     id="path6" />
  <path
     d="m 171.04469,36.284722 v -0.0344 c 0,-3.564 2.942,-6.3595 6.914,-6.3595 2.679,0 4.403,1.0478 5.565,2.5507 l -2.735,1.9753 c -0.75,-0.8739 -1.611,-1.4321 -2.867,-1.4321 -1.835,0 -3.128,1.4492 -3.128,3.2313 v 0.0343 c 0,1.8336 1.293,3.2678 3.128,3.2678 1.368,0 2.173,-0.5947 2.961,-1.4858 l 2.735,1.8164 c -1.236,1.591 -2.905,2.7611 -5.807,2.7611 -3.747,0 -6.763,-2.673 -6.763,-6.3251 z"
     fill="#525252"
     id="path8" />
  <path
     d="m 185.17069,30.135822 h 5.058 c 4.685,0 7.401,2.5164 7.401,6.0461 v 0.0343 c 0,3.5297 -2.755,6.1491 -7.476,6.1491 h -4.983 z m 5.114,9.2258 c 2.173,0 3.616,-1.1186 3.616,-3.0917 v -0.0344 c 0,-1.9559 -1.443,-3.0917 -3.616,-3.0917 h -1.479 v 6.2199 h 1.479 z"
     fill="#525252"
     id="path10" />
  <path
     d="m 199.50369,30.135822 h 3.841 l 3.128,4.7342 3.129,-4.7342 h 3.841 v 12.2295 h -3.616 v -7.0229 l -3.354,4.7878 h -0.075 l -3.334,-4.7513 v 6.9885 h -3.56 v -12.2294 z"
     fill="#525252"
     id="path12" />
  <path
     d="m 219.30569,36.145422 -4.309,-6.0096 h 4.178 l 2.323,3.4417 2.343,-3.4417 h 4.083 l -4.309,5.9752 4.496,6.2543 h -4.178 l -2.51,-3.6865 -2.529,3.6865 h -4.084 z"
     fill="#525252"
     id="path14" />
  <path
     d="m 171.42469,14.977842 h 3.418 v 8.70828 h 5.973 v 2.7933 h -9.391 z"
     fill="#7b388d"
     id="path16" />
  <path
     d="m 182.28069,14.977782 h 3.418 v 8.70834 h 5.973 v 2.7932 h -9.391 z"
     fill="#7b388d"
     id="path18" />
  <path
     d="m 197.39769,14.893802 h 3.296 l 5.249,11.58322 h -3.665 l -0.899,-2.0547 h -4.758 l -0.88,2.0547 h -3.595 l 5.25,-11.58322 z m 2.995,7.04862 -1.374,-3.2699 -1.391,3.2699 z"
     fill="#7b388d"
     id="path20" />
  <path
     d="m 204.39269,14.977782 h 3.824 l 2.802,7.27844 2.801,-7.27844 h 3.753 l -5.004,11.58314 h -3.171 z"
     fill="#7b388d"
     id="path22" />
  <path
     d="m 218.77069,14.977782 h 9.919 v 2.71164 h -6.537 v 1.7413 h 5.919 v 2.5141 h -5.919 v 1.8229 h 6.626 v 2.7116 h -10.008 z"
     fill="#7b388d"
     id="path24" />
  <path
     d="M17.416 35V23.0576H20.1798V35H17.416ZM28.4051 25.6849C30.5718 25.6849 32.2096 26.9474 32.2096 29.7454V35H29.5482V30.1548C29.5482 28.6705 28.8658 27.9881 27.6886 27.9881C26.4091 27.9881 25.4878 28.7729 25.4878 30.4619V35H22.8263V25.8214H25.3684V26.8962C26.0849 26.1115 27.1597 25.6849 28.4051 25.6849ZM41.6657 25.8214H44.1907V33.4646C44.1907 36.8767 42.3481 38.4462 39.0384 38.4462C37.2982 38.4462 35.6092 38.0197 34.5344 37.1837L35.5922 35.273C36.377 35.9042 37.6565 36.3137 38.8337 36.3137C40.7103 36.3137 41.5292 35.4606 41.5292 33.8058V33.4134C40.8298 34.1811 39.8232 34.5564 38.6289 34.5564C36.0869 34.5564 34.0397 32.7992 34.0397 30.1207C34.0397 27.4422 36.0869 25.6849 38.6289 25.6849C39.9085 25.6849 40.9662 26.1115 41.6657 26.9986V25.8214ZM39.1578 32.3727C40.5568 32.3727 41.5634 31.4685 41.5634 30.1207C41.5634 28.7729 40.5568 27.8687 39.1578 27.8687C37.7589 27.8687 36.7352 28.7729 36.7352 30.1207C36.7352 31.4685 37.7589 32.3727 39.1578 32.3727ZM49.2098 27.0327C49.8581 26.1456 50.95 25.6849 52.366 25.6849V28.1417C52.1442 28.1246 51.9736 28.1075 51.7689 28.1075C50.3017 28.1075 49.3292 28.9094 49.3292 30.6666V35H46.6678V25.8214H49.2098V27.0327ZM62.8561 30.4448C62.8561 30.6496 62.822 30.9396 62.8049 31.1614H55.8613C56.1172 32.3044 57.0896 33.0039 58.4886 33.0039C59.4611 33.0039 60.1605 32.7139 60.7918 32.1168L62.2078 33.6522C61.3548 34.6247 60.0752 35.1365 58.4204 35.1365C55.2471 35.1365 53.1828 33.1404 53.1828 30.4107C53.1828 27.664 55.2812 25.6849 58.0792 25.6849C60.7747 25.6849 62.8561 27.4934 62.8561 30.4448ZM58.0962 27.6981C56.8849 27.6981 56.0148 28.4317 55.8272 29.6089H60.3482C60.1605 28.4488 59.2905 27.6981 58.0962 27.6981ZM67.716 35.1365C66.1635 35.1365 64.5939 34.71 63.7409 34.147L64.628 32.2362C65.4469 32.7651 66.6923 33.1233 67.8183 33.1233C69.0467 33.1233 69.5073 32.7992 69.5073 32.2874C69.5073 30.786 63.9626 32.3215 63.9626 28.6535C63.9626 26.9133 65.5322 25.6849 68.2107 25.6849C69.4732 25.6849 70.8722 25.975 71.7423 26.4868L70.8551 28.3805C69.9509 27.8687 69.0467 27.6981 68.2107 27.6981C67.0165 27.6981 66.5047 28.0734 66.5047 28.5511C66.5047 30.1207 72.0493 28.6023 72.0493 32.2191C72.0493 33.9252 70.4627 35.1365 67.716 35.1365ZM77.3936 25.6849C80.1915 25.6849 81.8122 26.9815 81.8122 29.7624V35H79.3214V33.8569C78.8266 34.6929 77.8713 35.1365 76.5235 35.1365C74.3738 35.1365 73.0943 33.9422 73.0943 32.3556C73.0943 30.7349 74.2374 29.6089 77.0353 29.6089H79.1508C79.1508 28.4658 78.4684 27.8005 77.0353 27.8005C76.0628 27.8005 75.0563 28.1246 74.3909 28.6535L73.4355 26.7939C74.4421 26.0773 75.9264 25.6849 77.3936 25.6849ZM77.1888 33.3451C78.076 33.3451 78.8437 32.9357 79.1508 32.0997V31.1614H77.3253C76.0799 31.1614 75.6875 31.622 75.6875 32.2362C75.6875 32.9016 76.2505 33.3451 77.1888 33.3451ZM92.7547 25.6849C95.5526 25.6849 97.1734 26.9815 97.1734 29.7624V35H94.6825V33.8569C94.1878 34.6929 93.2324 35.1365 91.8846 35.1365C89.735 35.1365 88.4555 33.9422 88.4555 32.3556C88.4555 30.7349 89.5985 29.6089 92.3964 29.6089H94.5119C94.5119 28.4658 93.8295 27.8005 92.3964 27.8005C91.424 27.8005 90.4174 28.1246 89.7521 28.6535L88.7967 26.7939C89.8032 26.0773 91.2875 25.6849 92.7547 25.6849ZM92.55 33.3451C93.4371 33.3451 94.2049 32.9357 94.5119 32.0997V31.1614H92.6865C91.441 31.1614 91.0487 31.622 91.0487 32.2362C91.0487 32.9016 91.6117 33.3451 92.55 33.3451ZM109.617 32.6798L110.334 34.5564C109.788 34.9488 108.986 35.1365 108.167 35.1365C106 35.1365 104.738 34.0275 104.738 31.8438V28.0734H103.322V26.0262H104.738V23.7912H107.399V26.0262H109.685V28.0734H107.399V31.8097C107.399 32.5945 107.826 33.021 108.542 33.021C108.935 33.021 109.327 32.9016 109.617 32.6798ZM118.413 25.8214H121.075V35H118.55V33.9081C117.85 34.71 116.826 35.1365 115.7 35.1365C113.397 35.1365 111.777 33.8399 111.777 31.0078V25.8214H114.438V30.6154C114.438 32.1509 115.12 32.8333 116.298 32.8333C117.526 32.8333 118.413 32.0485 118.413 30.3595V25.8214Z"
     fill="#754679"
     id="path46" />
  <defs
     id="defs53">
    <linearGradient
       id="paint0_linear_3694_81378"
       x1="144.599"
       y1="23.0076"
       x2="154.494"
       y2="46.2065"
       gradientUnits="userSpaceOnUse">
      <stop
         stop-color="#B02384"
         id="stop48" />
      <stop
         offset="1"
         stop-color="#723C8F"
         id="stop50" />
    </linearGradient>
  </defs>
</svg>
