<svg width="28" height="23" viewBox="0 0 28 23" fill="none" xmlns="http://www.w3.org/2000/svg">
<g id="gorjeo copy">
<path id="Path" d="M27.6736 2.81485C26.6552 3.25467 25.5702 3.5462 24.4389 3.68775C25.6027 3.00359 26.4909 1.92847 26.9085 0.632608C25.8235 1.26959 24.6255 1.71952 23.3487 1.9706C22.3184 0.890433 20.85 0.221436 19.248 0.221436C16.14 0.221436 13.6379 2.70532 13.6379 5.75036C13.6379 6.18849 13.6755 6.60977 13.7679 7.01084C9.10077 6.78671 4.97101 4.58424 2.19673 1.22914C1.71239 2.05655 1.42828 3.00359 1.42828 4.02309C1.42828 5.93741 2.42949 7.63433 3.92189 8.61677C3.01994 8.59992 2.13512 8.34209 1.3855 7.93597C1.3855 7.95282 1.3855 7.97473 1.3855 7.99664C1.3855 10.6827 3.33143 12.9139 5.88322 13.4278C5.42626 13.5508 4.92823 13.6098 4.41136 13.6098C4.05196 13.6098 3.68913 13.5896 3.34855 13.5154C4.07592 15.7044 6.13994 17.3137 8.59418 17.366C6.68419 18.8371 4.25904 19.7235 1.63366 19.7235C1.17328 19.7235 0.731719 19.7033 0.290161 19.6476C2.77692 21.2266 5.72406 22.1282 8.90224 22.1282C19.2326 22.1282 24.8805 13.7025 24.8805 6.39913C24.8805 6.15479 24.8719 5.91887 24.8599 5.68464C25.9741 4.9061 26.9103 3.93378 27.6736 2.81485Z" fill="white"/>
</g>
</svg>
