<svg width="240" height="99" viewBox="0 0 240 99" fill="none" xmlns="http://www.w3.org/2000/svg">
<path d="M58.2584 59.2259C61.8279 73.2637 53.3058 87.5912 39.2626 91.1607C32.4623 92.8881 25.3942 91.8659 19.3648 88.2799C13.3353 84.694 9.06059 78.9706 7.3332 72.1704C3.76363 58.1326 12.2858 43.8051 26.3235 40.2356C27.8869 39.8365 28.8272 38.2512 28.4336 36.6879C28.0345 35.1245 26.4493 34.1842 24.8859 34.5778C7.73225 38.94 -2.68128 56.449 1.68092 73.6026C3.79096 81.9115 9.01686 88.9031 16.3856 93.2872C23.7543 97.6712 32.3913 98.923 40.7057 96.8075C49.4301 94.5882 56.4107 88.9742 60.5925 81.7312C64.6322 74.7341 66.0589 66.2175 63.9161 57.7828C63.5171 56.2194 61.9318 55.2791 60.3684 55.6727C58.805 56.0718 57.8648 57.657 58.2584 59.2204V59.2259Z" fill="url(#paint0_linear_1577_8352)"/>
<path d="M77.707 15.6209L70.1688 11.2696L71.8853 8.29043C73.3065 5.82507 72.4647 2.67641 69.9994 1.25514C67.534 -0.166127 64.3853 0.675702 62.9641 3.14106L35.468 50.7645C27.5799 49.3432 19.8723 54.3122 18.0082 62.2057C16.0786 70.3726 21.135 78.5558 29.3019 80.4854C37.4687 82.4151 45.6519 77.3586 47.5816 69.1918C48.7295 64.3267 47.3848 59.4616 44.3947 55.9084L62.6853 24.225L70.2235 28.5763C70.5624 28.7731 70.9942 28.6583 71.191 28.3194L73.2901 24.6842C73.4869 24.3453 73.3721 23.9135 73.0332 23.7167L70.2453 22.1095L72.0985 18.9062C72.0985 18.9062 72.1039 18.8789 72.1149 18.8625L74.9082 20.4751C75.2471 20.6719 75.679 20.5571 75.8758 20.2182L77.9749 16.583C78.1717 16.2441 78.0514 15.8122 77.7179 15.6154L77.707 15.6209ZM34.6535 69.9243C32.2319 70.9575 29.4276 69.8314 28.3944 67.4098C27.3613 64.9881 28.4874 62.1839 30.909 61.1507C33.3306 60.1176 36.1349 61.2436 37.168 63.6653C38.2012 66.0869 37.0751 68.8912 34.6535 69.9243Z" fill="#BFBFBE"/>
<path d="M88.3945 57.197V57.1095C88.3945 48.0352 95.8835 40.918 105.996 40.918C112.818 40.918 117.208 43.5856 120.165 47.4121L113.201 52.4412C111.293 50.2163 109.101 48.7951 105.903 48.7951C101.23 48.7951 97.9389 52.4849 97.9389 57.022V57.1095C97.9389 61.7778 101.23 65.4294 105.903 65.4294C109.386 65.4294 111.435 63.9152 113.442 61.6466L120.406 66.2712C117.257 70.3218 113.01 73.301 105.619 73.301C96.0803 73.301 88.4 66.4953 88.4 57.197H88.3945Z" fill="#525252"/>
<path d="M124.359 41.541H137.238C149.166 41.541 156.081 47.9477 156.081 56.9345V57.0219C156.081 66.0087 149.068 72.6777 137.047 72.6777H124.359V41.541ZM137.38 65.0302C142.912 65.0302 146.586 62.1822 146.586 57.1586V57.0711C146.586 52.0912 142.912 49.1995 137.38 49.1995H133.614V65.0357H137.38V65.0302Z" fill="#525252"/>
<path d="M160.852 41.541H170.631L178.596 53.5945L186.56 41.541H196.34V72.6777H187.134V54.7971L178.596 66.9872H178.404L169.915 54.89V72.6832H160.852V41.5465V41.541Z" fill="#525252"/>
<path d="M211.271 56.8415L200.3 41.541H210.937L216.852 50.3037L222.816 41.541H233.213L222.242 56.7541L233.689 72.6777H223.051L216.661 63.2919L210.221 72.6777H199.824L211.271 56.8415Z" fill="#525252"/>
<path d="M89.3633 2.94922H98.0658V25.121H113.273V32.2328H89.3633V2.94922Z" fill="#7B388D"/>
<path d="M117.004 2.94922H125.706V25.121H140.914V32.2328H117.004V2.94922Z" fill="#7B388D"/>
<path d="M155.492 2.73438H163.883L177.248 32.2257H167.917L165.627 26.9943H153.513L151.272 32.2257H142.121L155.486 2.73438H155.492ZM163.118 20.6806L159.619 12.3553L156.077 20.6806H163.118Z" fill="#7B388D"/>
<path d="M173.301 2.94922H183.036L190.17 21.4804L197.304 2.94922H206.859L194.117 32.4406H186.043L173.301 2.94922Z" fill="#7B388D"/>
<path d="M209.91 2.94922H235.165V9.85331H218.52V14.2866H233.591V20.6877H218.52V25.3287H235.389V32.2328H209.91V2.94922Z" fill="#7B388D"/>
<path d="M89.6523 84.2066H98.4478V86.7431H92.6534V88.3721H97.9012V90.7281H92.6534V92.4336H98.5298V94.97H89.6578V84.2012L89.6523 84.2066Z" fill="#A3A3A2"/>
<path d="M108.336 89.4985L104.744 84.207H108.227L110.162 87.2354L112.113 84.207H115.519L111.927 89.4657L115.677 94.9704H112.195L110.102 91.7234L107.992 94.9704H104.586L108.336 89.4931V89.4985Z" fill="#A3A3A2"/>
<path d="M122.133 84.207H126.818C129.584 84.207 131.366 85.6064 131.366 87.9898V88.0226C131.366 90.559 129.381 91.8983 126.664 91.8983H125.167V94.9759H122.138V84.207H122.133ZM126.599 89.5587C127.676 89.5587 128.332 89.0066 128.332 88.1593V88.1265C128.332 87.2026 127.676 86.7107 126.582 86.7107H125.161V89.5587H126.599Z" fill="#A3A3A2"/>
<path d="M137.961 84.2066H146.756V86.7431H140.962V88.3721H146.21V90.7281H140.962V92.4336H146.838V94.97H137.966V84.2012L137.961 84.2066Z" fill="#A3A3A2"/>
<path d="M153.688 84.207H157.908C161.816 84.207 164.079 86.4209 164.079 89.5313V89.5641C164.079 92.6691 161.783 94.9759 157.847 94.9759H153.693V84.207H153.688ZM157.951 92.3301C159.766 92.3301 160.969 91.3462 160.969 89.6079V89.5751C160.969 87.8531 159.766 86.8528 157.951 86.8528H156.716V92.3301H157.951Z" fill="#A3A3A2"/>
<path d="M171.016 84.207H174.06V94.9759H171.016V84.207Z" fill="#A3A3A2"/>
<path d="M181.367 84.2066H190.163V86.7431H184.368V88.3721H189.616V90.7281H184.368V92.4336H190.245V94.97H181.373V84.2012L181.367 84.2066Z" fill="#A3A3A2"/>
<path d="M197.099 84.207H199.925L204.424 89.8976V84.207H207.425V94.9759H204.769L200.095 89.0722V94.9759H197.094V84.207H197.099Z" fill="#A3A3A2"/>
<path d="M217.346 86.8258H214.066V84.2129H223.66V86.8258H220.38V94.9763H217.352V86.8258H217.346Z" fill="#A3A3A2"/>
<path d="M230.297 84.2066H239.092V86.7431H233.298V88.3721H238.546V90.7281H233.298V92.4336H239.174V94.97H230.302V84.2012L230.297 84.2066Z" fill="#A3A3A2"/>
<defs>
<linearGradient id="paint0_linear_1577_8352" x1="20.0341" y1="36.2292" x2="45.2277" y2="95.2947" gradientUnits="userSpaceOnUse">
<stop stop-color="#B02384"/>
<stop offset="1" stop-color="#723C8F"/>
</linearGradient>
</defs>
</svg>
